<svg width="65" height="65" viewBox="0 0 65 65" fill="none" xmlns="http://www.w3.org/2000/svg">
<g clip-path="url(#clip0_1456_246)">
<path d="M0 1.76409C0.491525 0.474948 1.44068 0 2.81356 0C15.8475 0.0169624 28.8644 0.0169624 41.8983 0.0169624C43.8475 0.0169624 44.661 0.848121 44.661 2.81576C44.661 3.32463 44.661 3.83351 44.661 4.42719C45.661 4.42719 46.6271 4.47808 47.5932 4.41023C49.9831 4.24061 50.8475 5.29228 50.8136 7.63309C50.7458 15.1814 50.7797 22.7466 50.7797 30.2949C50.7797 30.5154 50.7797 30.7359 50.7797 30.9564C50.8305 30.9734 50.8644 30.9903 50.9153 31.0073C51.0678 30.7359 51.2203 30.4815 51.3559 30.2101C51.9831 29.0566 52.5932 27.9032 53.2203 26.7497C53.5932 26.0882 54.0847 25.8677 54.6102 26.1391C55.1525 26.4275 55.2712 26.9703 54.8983 27.6657C51.5593 33.84 48.2712 40.0313 44.8644 46.1717C43.9831 47.7492 43.9322 49.2758 44.3559 50.9381C45.8644 50.3445 47.1186 49.6151 47.9492 48.0545C52.2542 39.9465 56.6441 31.9063 61 23.8322C61.1186 23.6117 61.2373 23.3912 61.339 23.1537C61.6949 22.2886 61.3729 21.3387 60.5932 20.9147C59.7627 20.4567 58.7797 20.6772 58.2712 21.5084C57.7627 22.3395 57.322 23.2046 56.8644 24.0527C56.6271 24.4937 56.2712 24.6973 55.7627 24.6125C55.1525 24.4937 54.8475 23.8322 55.1525 23.2216C55.6271 22.2886 56.1186 21.3387 56.678 20.4397C57.678 18.8452 59.7627 18.3194 61.4237 19.1845C63.0678 20.0326 63.8305 22.0003 63.1695 23.7304C63.1017 23.9 63.017 24.0866 62.9153 24.3241C63.0848 24.4259 63.2542 24.5446 63.4237 24.6464C64.8475 25.5454 65.4237 27.3265 64.661 28.8022C63 31.9911 61.2712 35.1292 59.5593 38.2842C59.2542 38.8439 58.6949 38.9796 58.2203 38.6913C57.7458 38.4029 57.6271 37.894 57.9492 37.3004C59.5593 34.298 61.1864 31.3126 62.7966 28.3272C63.3559 27.2925 63.1186 26.5801 62 26.0373C61.8983 26.2069 61.7797 26.3766 61.6949 26.5462C58.1525 33.1106 54.5932 39.6751 51.0678 46.2396C50.8983 46.5449 50.8136 46.9181 50.8136 47.2573C50.7966 52.2103 50.7966 57.1634 50.7966 62.1164C50.7966 63.8466 50.4576 64.3554 48.8814 64.9661C46.1356 64.9661 43.3898 64.9661 40.6271 64.9661C40.3898 64.6608 40.0339 64.3894 39.9492 64.0501C39.7966 63.4903 40.3051 63.0324 41.0169 63.0324C43.3559 63.0154 45.7119 63.0324 48.0508 63.0324C48.8983 63.0324 48.8983 63.0324 48.8983 62.1842C48.8983 58.4355 48.8983 54.6868 48.8983 50.9551C48.8983 50.7685 48.8983 50.5819 48.8983 50.2088C47.6949 51.7523 45.9661 52.1934 44.4915 53.0415C44.1525 53.245 44.0169 53.7709 43.7119 54.0592C43.4407 54.2967 43.0508 54.5342 42.7119 54.5342C42.4746 54.5342 42.1525 54.1949 42 53.9405C41.8983 53.7709 41.9153 53.3977 42.0508 53.2281C42.678 52.4139 42.4915 51.5149 42.3729 50.6159C42.2881 50.0052 42.2034 49.3946 42.1525 48.7839C42.0847 47.7662 42.3729 46.8332 42.8644 45.9342C44.7627 42.423 46.678 38.9118 48.5424 35.3836C48.7627 34.9765 48.8814 34.4676 48.8814 34.0097C48.8983 25.0535 48.8983 16.1143 48.8983 7.15814C48.8983 6.2761 48.8983 6.2761 48.0339 6.2761C34.5593 6.2761 21.0847 6.2761 7.62712 6.2761C6.74576 6.2761 6.74576 6.2761 6.74576 7.15814C6.74576 22.7975 6.74576 38.4368 6.74576 54.0592C6.74576 54.2628 6.74576 54.4833 6.74576 54.7886C7 54.7886 7.22034 54.7886 7.44068 54.7886C9.13559 54.7886 10.8305 54.7886 12.5085 54.7886C14.0847 54.7886 14.9661 55.6876 14.9661 57.2821C14.9661 59.1649 14.9661 61.0478 14.9661 63.0324C15.2542 63.0324 15.4915 63.0324 15.7288 63.0324C22.5932 63.0324 29.4746 63.0324 36.339 63.0324C36.4915 63.0324 36.6271 63.0324 36.7797 63.0324C37.322 62.9984 37.8305 63.0663 38.0339 63.66C38.2542 64.2706 37.8814 64.6438 37.4237 64.9661C29.5085 64.9661 21.6102 64.9661 13.6949 64.9661C13.3559 64.6608 13.0169 64.3554 12.6949 64.0331C11.7458 63.1002 10.8305 62.1333 9.86441 61.2174C9.62712 60.9969 9.25424 60.8272 8.94915 60.8272C6.94915 60.7933 4.9322 60.7594 2.9322 60.8272C1.54237 60.8781 0.559322 60.4371 0.0169492 59.131C0.0169492 51.7184 0.0169492 44.3228 0.0169492 36.9102C0.220339 36.7406 0.40678 36.5201 0.644068 36.4183C1.35593 36.13 1.91525 36.6558 1.91525 37.5718C1.91525 44.3567 1.91525 51.1587 1.91525 57.9436C1.91525 58.9105 1.91525 58.9105 2.89831 58.9105C4.23729 58.9105 5.55932 58.9105 6.89831 58.9105C7.0678 58.9105 7.25424 58.8766 7.59322 58.8426C6.81356 58.0793 6.15254 57.4178 5.47458 56.8071C5 56.3831 4.81356 55.8912 4.81356 55.2466C4.83051 39.1832 4.83051 23.1198 4.83051 7.07333C4.83051 5.20746 5.64407 4.39327 7.47458 4.39327C18.9661 4.39327 30.4407 4.39327 41.9322 4.39327C42.2034 4.39327 42.4576 4.39327 42.7627 4.39327C42.7627 3.78262 42.7627 3.27375 42.7627 2.76487C42.7627 1.89979 42.7458 1.88283 41.8644 1.88283C28.8644 1.88283 15.8475 1.88283 2.84746 1.88283C1.91525 1.88283 1.91525 1.88283 1.91525 2.84969C1.91525 12.9084 1.91525 22.9502 1.91525 33.0089C1.91525 33.2463 1.98305 33.5008 1.89831 33.7043C1.76271 33.9927 1.57627 34.3659 1.32203 34.4507C1.0339 34.5525 0.661017 34.3828 0.322034 34.298C0.20339 34.2641 0.118644 34.1114 0.0169492 34.0097C0 23.2724 0 12.5183 0 1.76409ZM8.30509 56.7393C9.88136 58.3168 11.4746 59.8943 13.0508 61.4888C13.0508 60.0809 13.0678 58.6052 13.0339 57.1464C13.0339 57.0107 12.7797 56.7732 12.6441 56.7732C11.1864 56.7393 9.71186 56.7393 8.30509 56.7393Z" fill="#206FE6"/>
<path d="M27.8135 8.44727C32.0677 8.44727 36.305 8.44727 40.5593 8.44727C42.0508 8.44727 42.4067 8.80348 42.4067 10.3301C42.4067 11.6701 42.4067 12.9932 42.4067 14.3332C42.4067 15.4697 41.9491 15.9447 40.8474 15.9447C32.1355 15.9447 23.4237 15.9447 14.7118 15.9447C13.644 15.9447 13.1864 15.4527 13.1694 14.3672C13.1694 12.9253 13.1694 11.4835 13.1694 10.0587C13.1694 8.90525 13.6101 8.46423 14.7966 8.46423C19.1525 8.44727 23.4745 8.44727 27.8135 8.44727ZM15.1186 13.994C23.6101 13.994 32.0338 13.994 40.4745 13.994C40.4745 12.7727 40.4745 11.6023 40.4745 10.4149C31.9999 10.4149 23.5593 10.4149 15.1186 10.4149C15.1186 11.6192 15.1186 12.7727 15.1186 13.994Z" fill="#206FE6"/>
<path d="M26.7119 34.5187C21.695 34.5187 16.695 34.5187 11.678 34.5187C11.4238 34.5187 11.1017 34.5526 10.9492 34.4169C10.678 34.1794 10.3899 33.8232 10.339 33.4839C10.2882 33.0429 10.6272 32.7037 11.1017 32.6189C11.3051 32.5849 11.5255 32.6019 11.7289 32.6019C21.695 32.6019 31.6441 32.6019 41.6102 32.6019C41.7967 32.6019 42 32.5849 42.1865 32.6189C42.695 32.6867 43 32.9751 43.0339 33.4839C43.0678 34.0098 42.7967 34.3321 42.3051 34.4678C42.0848 34.5187 41.8475 34.5017 41.6102 34.5017C36.6441 34.5186 31.678 34.5187 26.7119 34.5187Z" fill="#206FE6"/>
<path d="M26.6611 38.7422C21.7119 38.7422 16.7628 38.7422 11.8136 38.7422C11.5763 38.7422 11.339 38.7591 11.1187 38.7252C10.6272 38.6574 10.3051 38.3181 10.356 37.8771C10.3899 37.5379 10.695 37.1986 10.9492 36.9442C11.1017 36.8085 11.4238 36.8424 11.678 36.8424C21.678 36.8424 31.678 36.8424 41.678 36.8424C41.9322 36.8424 42.1865 36.8424 42.4238 36.9272C42.8814 37.0799 43.1526 37.47 43 37.911C42.8814 38.2333 42.5424 38.5047 42.2373 38.7083C42.0678 38.81 41.7797 38.7422 41.5594 38.7422C36.5933 38.7422 31.6272 38.7422 26.6611 38.7422Z" fill="#206FE6"/>
<path d="M26.644 26.0202C21.6779 26.0202 16.7118 26.0202 11.7288 26.0202C11.5254 26.0202 11.3051 26.0372 11.1017 26.0033C10.6101 25.9015 10.3051 25.5623 10.3051 25.0703C10.3051 24.5784 10.5932 24.2392 11.1017 24.1374C11.3051 24.1035 11.5254 24.1205 11.7288 24.1205C21.6949 24.1205 31.644 24.1205 41.6101 24.1205C41.7966 24.1205 42 24.1035 42.1864 24.1374C42.7118 24.2222 43.0339 24.5276 43.0339 25.0703C43.0339 25.6131 42.7118 25.9185 42.1864 26.0033C42 26.0372 41.8135 26.0202 41.6101 26.0202C36.6271 26.0202 31.644 26.0202 26.644 26.0202Z" fill="#206FE6"/>
<path d="M26.7118 41.0999C31.661 41.0999 36.6101 41.0999 41.5593 41.0999C41.7627 41.0999 41.983 41.083 42.1864 41.1169C42.6949 41.1678 43 41.4731 43.0339 41.982C43.0678 42.4909 42.8135 42.8301 42.322 42.9488C42.1017 42.9997 41.8644 42.9997 41.6271 42.9997C31.661 42.9997 21.7118 42.9997 11.7457 42.9997C11.661 42.9997 11.5762 42.9997 11.4915 42.9997C10.7627 42.9828 10.3051 42.6096 10.3051 42.0329C10.3051 41.4562 10.7457 41.0999 11.4915 41.0999C16.5593 41.0999 21.644 41.0999 26.7118 41.0999Z" fill="#206FE6"/>
<path d="M26.7119 30.2609C21.7458 30.2609 16.7797 30.2609 11.8136 30.2609C11.5763 30.2609 11.339 30.2609 11.1186 30.2439C10.6271 30.1761 10.3559 29.8538 10.322 29.3958C10.2881 28.9378 10.5254 28.5816 11 28.4459C11.2203 28.378 11.4576 28.378 11.6949 28.378C21.6949 28.378 31.6949 28.378 41.6949 28.378C41.9492 28.378 42.2712 28.3441 42.4237 28.4798C42.6949 28.7173 42.9492 29.0735 43.0169 29.4127C43.1017 29.8538 42.7627 30.1591 42.322 30.2439C42.0847 30.2948 41.8136 30.2778 41.5593 30.2778C36.6102 30.2609 31.661 30.2609 26.7119 30.2609Z" fill="#206FE6"/>
<path d="M33 52.821C32.7797 53.3977 32.6102 53.9914 32.339 54.5342C31.8136 55.6368 30.8305 56.0608 29.7288 55.7385C28.8983 55.5011 28.5085 54.8565 28.3221 54.0932C28.1526 53.4147 28.1017 52.7192 27.9322 52.0407C27.8644 51.7693 27.6441 51.3453 27.4746 51.3283C27.1695 51.3114 26.7119 51.464 26.5763 51.7015C25.8814 52.9058 25.2882 54.1441 24.661 55.3993C24.5424 55.6368 24.5085 55.9251 24.3899 56.1796C24.1695 56.6376 23.7966 56.8581 23.3051 56.7224C22.7966 56.5867 22.5085 56.1965 22.6271 55.6707C22.7458 55.1109 22.8983 54.5512 23.1526 54.0423C23.7288 52.8889 24.2712 51.7015 25 50.6668C25.3899 50.107 26.1017 49.649 26.7627 49.4455C28.0678 49.0554 29.2204 49.7508 29.6441 51.0569C29.8644 51.7524 29.9492 52.4987 30.1017 53.2281C30.1526 53.4656 30.2204 53.7031 30.2882 53.9405C30.356 53.9575 30.4068 53.9745 30.4746 53.9914C30.5933 53.7539 30.7458 53.5334 30.8475 53.279C31.0678 52.7023 31.2034 52.0916 31.4916 51.5658C32.1695 50.2766 33.7966 50.2427 34.5594 51.4979C34.7627 51.8372 34.9322 52.2104 35.0339 52.6005C35.3899 53.9066 36.3221 54.5173 37.5763 54.619C38.5424 54.6869 39.5085 54.653 40.4916 54.636C41.2882 54.619 41.7458 54.9243 41.7797 55.518C41.8136 56.1117 41.3729 56.5188 40.5763 56.5358C39.4238 56.5527 38.2543 56.6206 37.1017 56.4849C35.2034 56.2644 33.8814 55.1957 33.2712 53.3299C33.2373 53.2111 33.1865 53.0924 33.1356 52.9737C33.1017 52.8889 33.0509 52.8719 33 52.821Z" fill="#206FE6"/>
<path d="M15.3898 19.5408C16.6949 19.5408 18.0169 19.5408 19.322 19.5408C20.0677 19.5408 20.4915 19.897 20.4915 20.4907C20.4915 21.0674 20.0508 21.4406 19.305 21.4406C16.7118 21.4406 14.1016 21.4406 11.5084 21.4406C10.7627 21.4406 10.322 21.0844 10.305 20.5076C10.2881 19.897 10.7288 19.5408 11.5254 19.5408C12.8135 19.5408 14.1016 19.5408 15.3898 19.5408Z" fill="#206FE6"/>
</g>
<defs>
<clipPath id="clip0_1456_246">
<rect width="65" height="65" fill="white"/>
</clipPath>
</defs>
</svg>
