<svg width="55" height="70" viewBox="0 0 55 70" fill="none" xmlns="http://www.w3.org/2000/svg">
<g clip-path="url(#clip0_1456_223)">
<path d="M4.27296 69.9999C3.70689 69.7625 3.12256 69.5981 2.59301 69.3059C0.67568 68.2467 -0.365156 66.037 0.109611 63.9185C0.821763 60.7043 1.58869 57.4901 2.35563 54.2759C2.44693 53.8742 2.55649 53.4724 2.75735 53.1254C3.1956 52.3401 3.2869 51.5548 3.1956 50.66C2.73909 46.7883 4.01731 43.3002 5.75204 39.9399C7.08504 37.3832 8.47283 34.8447 9.80583 32.2879C10.2076 31.5027 10.4815 30.6443 10.8101 29.8225C10.9745 29.4025 10.9197 29.0372 10.7371 28.5989C9.678 26.2065 9.69626 23.8872 11.2484 21.6774C11.3945 21.4583 11.4493 21.1296 11.4493 20.8556C11.5953 16.3083 12.9101 12.181 15.7222 8.565C17.0917 6.81181 18.7351 5.4056 20.6707 4.32811C20.9081 4.20027 21.1272 4.03591 21.3098 3.83502C23.8115 0.894768 27.0801 -0.255766 30.8417 0.109483C37.9084 0.803456 43.8613 6.24567 45.3404 13.2402C45.9429 16.1439 45.669 18.9381 44.2265 21.5861C44.1169 21.7688 44.1169 22.1157 44.2265 22.3166C45.3404 24.4168 45.2491 26.4987 44.3543 28.6354C44.2265 28.9459 44.1534 29.4025 44.2813 29.7129C45.0482 31.5209 45.8516 33.3289 46.7281 35.1186C48.0977 37.931 49.6315 40.6887 50.8915 43.5559C52.0236 46.1491 52.2793 48.925 51.8228 51.7374C51.8045 51.8835 51.768 52.0662 51.841 52.194C52.8636 54.0385 53.0827 56.1387 53.594 58.1293C54.0688 60.0103 54.507 61.8914 54.8905 63.7907C55.4931 66.7127 53.9044 69.2146 51.001 69.9634C50.928 69.9817 50.855 70.0364 50.7637 70.0912C35.2607 69.9999 19.7577 69.9999 4.27296 69.9999ZM42.4187 20.4904C43.5326 18.4998 43.7882 16.4179 43.4413 14.2994C42.4004 7.96234 37.2693 2.97669 30.8965 2.15488C27.8835 1.77137 25.1445 2.52013 23.0993 4.87598C20.6159 7.74319 20.5064 11.0487 21.5655 14.5186C21.602 14.6647 21.7298 14.7925 21.8576 14.8838C26.3314 18.3902 31.353 20.4904 37.0684 20.7826C37.3058 20.8008 37.598 20.7826 37.7806 20.673C39.2779 19.7964 40.7935 19.7051 42.4187 20.4904ZM20.835 16.6918C20.6707 16.9109 20.5064 17.0936 20.342 17.2762C16.6352 22.2071 16.6717 29.9503 20.4151 34.8447C24.2862 39.9034 30.6956 39.9216 34.5668 34.8629C36.6302 32.1418 37.4702 29.0372 37.3789 25.6587C37.3606 24.709 37.2145 23.7776 37.1415 22.828C30.9878 22.5358 25.6558 20.326 20.835 16.6918ZM40.8848 67.9363C40.7935 67.6806 40.7205 67.4432 40.6475 67.2058C39.8075 64.8682 39.351 62.4575 39.3145 59.9921C39.2962 59.3346 39.1136 59.1337 38.4562 59.1337C36.1554 59.1703 33.8546 59.152 31.5538 59.152C26.5688 59.152 21.5655 59.1703 16.5804 59.1337C15.923 59.1337 15.7404 59.3346 15.7222 59.9921C15.6856 61.1244 15.5943 62.2749 15.3752 63.3889C15.083 64.923 14.6265 66.4205 14.2431 67.9545C23.0628 67.9363 31.9556 67.9363 40.8848 67.9363ZM15.0465 47.9754C12.9649 48.6146 10.9562 49.199 8.98411 49.8564C6.53723 50.6782 4.94859 52.3949 4.30948 54.8786C3.52429 57.965 2.83039 61.0696 2.1365 64.1742C1.73478 65.9456 2.88518 67.7171 4.65642 67.8815C6.40941 68.0276 8.18066 67.918 10.025 67.918C9.91539 67.7354 9.84235 67.6258 9.76931 67.5162C8.63717 65.8361 8.08936 63.955 7.83371 61.9644C7.72415 61.1609 8.05284 60.6495 8.67369 60.5765C9.33106 60.4852 9.69626 60.9235 9.89713 61.7453C10.171 62.9506 10.4815 64.1742 10.9197 65.343C11.1571 66.0187 11.6684 66.5848 12.1431 67.3336C13.184 64.7768 13.6405 62.3479 13.6953 59.8277C13.7135 58.8415 13.9874 58.0563 14.8091 57.4719C14.937 57.3806 15.0648 57.1431 15.0648 56.9788C15.0648 54.002 15.0465 51.0435 15.0465 47.9754ZM44.9569 67.9545C46.6916 67.9545 48.2985 67.9728 49.8872 67.9545C51.9323 67.918 53.3384 66.1465 52.8819 64.1377C52.188 61.1061 51.5123 58.0563 50.7637 55.043C50.1063 52.4132 48.4446 50.66 45.8699 49.8016C44.2813 49.272 42.6561 48.7972 41.0492 48.3041C40.7205 48.1945 40.3736 48.1215 39.9718 48.0119C39.9718 51.0435 39.9718 54.002 39.9901 56.9605C39.9901 57.1431 40.1362 57.3806 40.3005 57.4901C41.0127 58.0197 41.3048 58.7137 41.3596 59.5903C41.4327 60.8869 41.524 62.1836 41.7613 63.4437C41.9987 64.7038 42.4187 65.9091 42.8022 67.3153C43.1309 66.8953 43.3317 66.6761 43.4961 66.4387C44.4821 65.0508 44.9204 63.462 45.1577 61.8001C45.2856 60.9052 45.6873 60.4669 46.3629 60.5582C47.0203 60.6495 47.3125 61.1791 47.2029 62.0923C47.1846 62.1836 47.1664 62.2749 47.1664 62.3662C46.8377 64.3568 46.1986 66.2013 44.9569 67.9545ZM49.9237 49.7103C49.9237 49.3633 49.9419 49.1077 49.9237 48.852C49.8141 46.3318 49.0654 43.9759 47.9151 41.7479C46.089 38.1867 44.2082 34.6621 42.3457 31.0826C41.3048 31.7766 40.0631 32.3245 38.6206 32.0688C38.5293 32.0505 38.3649 32.1784 38.3284 32.2697C37.6345 33.548 36.8128 34.7716 36.3015 36.1231C35.352 38.6981 34.439 41.3279 35.6807 44.1037C35.7902 44.3412 35.9911 44.5968 36.2285 44.6699C37.4519 45.0899 38.7301 45.3821 39.9353 45.8387C43.2769 47.0257 46.929 47.4093 49.9237 49.7103ZM5.03989 49.4912C6.40941 48.852 7.57807 48.1763 8.83803 47.7562C12.1249 46.6788 15.4483 45.7108 18.7534 44.6881C18.9177 44.6334 19.1916 44.5786 19.2281 44.4507C19.502 43.6472 19.9403 42.8071 19.922 41.9853C19.9038 40.6521 19.5933 39.3372 19.3742 38.0041C19.009 35.7578 17.2378 34.169 16.6352 31.9957C15.1013 32.3062 13.8048 31.8131 12.7275 31.0826C11.3214 33.7489 9.95191 36.3605 8.56413 38.9537C7.37721 41.1818 6.17203 43.4098 5.60596 45.9117C5.31379 47.1171 5.22249 48.3406 5.03989 49.4912ZM27.5183 46.9527C29.3078 45.3821 31.0608 43.8481 32.7955 42.314C32.9051 42.2227 32.9964 42.0584 33.0147 41.9123C33.1242 40.9261 33.2338 39.9399 33.3433 38.8807C29.4539 41.3279 25.5827 41.3096 21.7115 38.8807C21.8211 39.9034 21.9124 40.8165 22.022 41.7479C22.0402 41.9488 22.1498 42.2045 22.2959 42.3323C23.9941 43.8846 25.7288 45.3821 27.5183 46.9527ZM19.1916 7.90755C15.5943 11.14 13.9144 15.2673 13.5309 19.9243C14.5718 19.9973 15.503 20.0521 16.5256 20.1251C17.1465 18.3719 18.096 16.6735 19.3925 15.1943C19.4838 15.0847 19.4838 14.8108 19.429 14.6464C18.8447 12.4184 18.7168 10.1904 19.1916 7.90755ZM20.5246 57.0518C20.5246 54.9334 20.5246 52.8697 20.5246 50.8061C20.5246 50.6965 20.4698 50.5869 20.4333 50.4773C19.9403 49.272 19.429 48.0667 18.8995 46.8066C18.4247 46.9527 17.7856 47.1536 17.1282 47.3545C17.1282 50.6052 17.1282 53.8011 17.1282 57.0518C18.2603 57.0518 19.356 57.0518 20.5246 57.0518ZM36.1372 46.7701C35.5894 48.0667 35.0963 49.272 34.6033 50.4773C34.5668 50.5869 34.512 50.6965 34.512 50.8061C34.512 52.8697 34.512 54.9516 34.512 57.0518C35.6624 57.0518 36.7763 57.0518 37.9267 57.0518C37.9267 56.7596 37.9267 56.5222 37.9267 56.2665C37.9267 53.8742 37.9267 51.4818 37.9267 49.0894C37.9267 47.1901 37.9267 47.1901 36.0276 46.7701C35.9911 46.7701 35.9728 46.7883 36.1372 46.7701ZM21.4376 44.3594C21.3646 44.5968 21.3098 44.7247 21.2915 44.8525C21.255 44.9803 21.255 45.1264 21.2368 45.2543C20.8898 47.7928 22.2046 49.6555 23.7567 51.4087C23.848 51.5183 24.2862 51.5 24.3593 51.3905C24.9984 50.4591 25.5827 49.4912 26.1853 48.5233C24.5784 47.1171 23.0445 45.7656 21.4376 44.3594ZM39.0406 30.1147C39.4971 30.0417 39.8623 30.0234 40.191 29.9138C42.8022 29.0555 43.8978 24.8003 42.0352 22.7915C41.3596 22.061 40.337 21.7688 39.4971 22.134C39.3327 22.2071 39.1501 22.481 39.1684 22.6636C39.2232 23.2845 39.351 23.9237 39.4423 24.5447C39.9353 24.3803 40.4101 24.1977 40.8848 24.0698C41.4692 23.9237 41.9805 24.2342 42.1448 24.7455C42.3091 25.3117 42.0352 25.823 41.4327 26.0422C41.177 26.1335 40.9031 26.1883 40.6657 26.2978C40.0449 26.59 39.5518 27.0101 39.424 27.7223C39.2779 28.4711 39.1684 29.2198 39.0406 30.1147ZM33.599 44.3412C32.7408 45.0899 31.9556 45.7656 31.1704 46.4596C30.3852 47.1536 29.6182 47.8293 28.833 48.5233C29.4356 49.4729 30.0017 50.3678 30.5495 51.2626C30.7869 51.6461 31.0608 51.7192 31.3347 51.3357C31.9556 50.4956 32.6495 49.6921 33.1425 48.7789C33.9277 47.4275 34.0372 45.9665 33.599 44.3412ZM15.5761 24.5447C15.6856 23.9055 15.8135 23.3028 15.85 22.7001C15.8682 22.5175 15.6674 22.2071 15.4848 22.134C14.3526 21.6957 13.1657 22.2436 12.5266 23.4306C11.4675 25.403 12.2344 28.3798 14.1335 29.5486C14.6448 29.859 15.2657 29.9686 16.0143 30.2243C15.9048 29.5486 15.7769 29.1285 15.7769 28.7085C15.7587 27.2475 15.0648 26.3892 13.6405 26.0422C13.0014 25.8961 12.7457 25.3665 12.8918 24.7821C13.0196 24.2342 13.5492 23.9237 14.17 24.0698C14.6265 24.1977 15.0648 24.3803 15.5761 24.5447ZM26.4044 57.0518C26.4044 55.4082 26.4044 53.8011 26.4044 52.3401C25.8566 52.7419 25.3271 53.3263 24.688 53.5272C24.0489 53.7098 23.3002 53.4907 22.6246 53.4359C22.6246 54.5499 22.6246 55.7917 22.6246 57.0518C23.921 57.0518 25.1627 57.0518 26.4044 57.0518ZM28.5774 57.0336C29.9104 57.0336 31.1704 57.0336 32.4303 57.0336C32.4303 55.7552 32.4303 54.5316 32.4303 53.4541C31.6999 53.4907 30.9512 53.7098 30.3121 53.5272C29.673 53.3263 29.1435 52.7236 28.5774 52.3036C28.5774 53.8011 28.5774 55.3899 28.5774 57.0336Z" fill="#206FE6"/>
<path d="M27.4269 32.2515C26.3861 32.2149 25.4001 31.8132 24.5966 30.9731C24.1401 30.48 24.1218 29.9321 24.5053 29.5121C24.9253 29.0555 25.4914 29.0555 26.0209 29.5121C27.0983 30.4252 27.92 30.4252 28.9791 29.5304C29.5086 29.0738 30.0747 29.0555 30.4947 29.4938C30.9147 29.9321 30.8599 30.4983 30.3851 31.0096C29.673 31.7766 28.5773 32.2515 27.4269 32.2515Z" fill="#206FE6"/>
<path d="M23.9575 24.837C23.9575 25.0562 23.9757 25.2936 23.9575 25.5128C23.921 26.1154 23.5192 26.5172 22.9714 26.5172C22.4236 26.5355 21.9671 26.1519 21.9306 25.5675C21.8941 25.0745 21.8941 24.5631 21.9306 24.07C21.9671 23.5039 22.4419 23.0839 22.9714 23.1204C23.501 23.1386 23.9027 23.5587 23.9575 24.1431C23.9757 24.3805 23.9575 24.6179 23.9575 24.837Z" fill="#206FE6"/>
<path d="M33.0876 24.8186C33.0876 25.1108 33.1424 25.4213 33.0693 25.6952C32.9415 26.2431 32.5763 26.5718 31.992 26.517C31.4442 26.4805 31.1155 26.1335 31.0607 25.6039C31.0242 25.1291 31.0242 24.6543 31.0607 24.1794C31.079 23.5585 31.5355 23.1202 32.0833 23.1385C32.6128 23.1385 33.0328 23.5585 33.0876 24.1429C33.1059 24.3621 33.0876 24.5995 33.0876 24.8186Z" fill="#206FE6"/>
<path d="M22.935 21.6775C22.6428 21.6592 22.3324 21.6775 22.0585 21.6227C21.5472 21.5314 21.255 21.1844 21.2368 20.673C21.2185 20.1617 21.4741 19.7417 21.9854 19.6869C22.6063 19.6138 23.2636 19.6138 23.8845 19.6869C24.3958 19.7417 24.6514 20.1617 24.6332 20.673C24.6149 21.1844 24.341 21.5314 23.8297 21.6227C23.5375 21.6775 23.2271 21.6592 22.935 21.6775Z" fill="#206FE6"/>
</g>
<defs>
<clipPath id="clip0_1456_223">
<rect width="55" height="70" fill="white"/>
</clipPath>
</defs>
</svg>
