<svg width="62" height="72" viewBox="0 0 62 72" fill="none" xmlns="http://www.w3.org/2000/svg">
<g clip-path="url(#clip0_1456_230)">
<path d="M23.1809 37.7619C21.8974 36.3803 20.7325 35.0388 19.4885 33.8175C18.7579 33.0967 18.3828 32.3158 18.521 31.2947C18.5408 31.0744 18.521 30.8542 18.521 30.5739C18.2643 30.5138 18.0274 30.4738 17.7904 30.4137C15.2828 29.773 13.9599 27.09 15.0064 24.7274C15.2038 24.2669 15.1446 23.9665 14.9076 23.5661C11.4522 17.5594 13.1503 10.4315 18.9751 6.78744C20.5943 5.78633 21.9764 4.58499 23.2006 3.10335C26.3006 -0.640815 32.0267 -1.04126 35.6599 2.1623C35.9363 2.40257 36.2127 2.66286 36.4694 2.94317C37.5554 4.1445 38.7994 5.0455 40.3197 5.72626C44.9796 7.80857 47.2503 13.1545 45.7299 18.12C45.2955 19.5216 44.8216 20.9231 44.3478 22.3047C44.2293 22.6451 44.2688 22.8653 44.5847 23.1256C45.9471 24.2669 46.4408 25.7485 45.9669 27.4904C45.493 29.2124 44.2885 30.1934 42.5509 30.4938C42.472 30.5138 42.4127 30.5338 42.3337 30.5538C42.314 30.6339 42.2548 30.694 42.2745 30.7741C42.5509 32.3158 41.8401 33.417 40.7739 34.4382C39.7669 35.3792 38.8783 36.4604 37.8713 37.5616C39.4904 38.0422 40.9911 38.4827 42.5115 38.9031C44.4267 39.4637 46.342 39.9843 48.2573 40.565C52.1866 41.7663 54.7535 44.3892 55.8987 48.3937C57.2414 53.1189 58.5643 57.8442 59.907 62.5694C60.0255 62.9699 60.2624 63.3903 60.5388 63.7107C61.9013 65.3325 62.4344 67.1145 61.5853 69.1167C60.7165 71.1389 59.0974 72.0399 56.9452 72.0399C39.6484 72.0399 22.3516 72.0399 5.07451 72.0399C2.92228 72.0399 1.30317 71.1389 0.434383 69.1167C-0.434406 67.0744 0.11846 65.2724 1.52037 63.6506C1.77706 63.3703 1.97451 63.0099 2.07324 62.6295C3.41591 57.9042 4.73884 53.179 6.08152 48.4537C7.24649 44.3291 9.8726 41.6662 13.9599 40.4849C16.8229 39.664 19.686 38.823 22.549 37.9821C22.707 37.922 22.9044 37.862 23.1809 37.7619ZM46.1446 64.7719C46.1446 59.0655 46.1446 53.4393 46.1446 47.833C46.1446 46.2913 45.4732 45.6306 43.9331 45.6306C35.1662 45.6306 26.3994 45.6306 17.6325 45.6306C16.0331 45.6306 15.4013 46.2913 15.4013 47.9131C15.4013 53.2791 15.4013 58.6451 15.4013 64.031C15.4013 64.2913 15.4013 64.5516 15.4013 64.8119C25.7083 64.7719 35.8771 64.7719 46.1446 64.7719ZM20.9497 16.8186C20.9299 17.0188 20.9102 17.1389 20.9102 17.2591C20.9102 21.9443 20.9102 26.6495 20.9299 31.3347C20.9299 31.615 21.1076 31.9554 21.3051 32.1756C23.0822 34.1378 24.8987 36.08 26.7153 38.0221C26.9127 38.2424 27.2879 38.4026 27.5841 38.4026C29.4994 38.4426 31.4146 38.4426 33.3497 38.4026C33.6261 38.4026 33.9618 38.2424 34.1592 38.0422C35.9758 36.12 37.7923 34.1578 39.5694 32.1957C39.7866 31.9554 39.9446 31.555 39.9446 31.2146C39.9643 26.3892 39.9643 21.5839 39.9446 16.7585C39.9446 16.3981 39.7471 15.9576 39.4904 15.6773C38.5229 14.6362 37.4962 13.6751 36.5287 12.6339C36.114 12.1734 35.6599 12.0333 35.0675 11.9932C34.0408 11.9131 33.2707 12.1934 32.6586 13.0344C32.4216 13.3748 32.0662 13.635 31.7898 13.9354C29.9337 15.9576 27.6433 16.8987 24.9382 16.8186C23.5758 16.7986 22.2726 16.8186 20.9497 16.8186ZM42.2943 20.6629C42.3337 20.6829 42.393 20.6829 42.4325 20.7029C42.8076 19.5817 43.2025 18.4604 43.5185 17.3191C44.6637 13.4148 42.7681 9.29022 39.056 7.76853C37.5949 7.16786 36.3707 6.34695 35.3242 5.18566C34.949 4.78521 34.5739 4.40479 34.1592 4.02437C31.6516 1.74183 27.4064 1.86197 25.2344 4.46486C23.635 6.36697 21.779 7.8286 19.7452 9.17009C15.3618 12.0533 14.1573 18.3803 17.1191 22.5249C17.5732 22.4048 18.0471 22.2847 18.5408 22.1645C18.5408 20.0822 18.5408 18.0399 18.5408 15.9977C18.5408 14.8764 18.9554 14.456 20.0611 14.456C21.8382 14.456 23.6153 14.456 25.3726 14.456C27.0509 14.456 28.4923 13.8553 29.6968 12.654C30.4866 11.8531 31.2369 11.0121 32.0662 10.2913C32.4414 9.97098 32.9943 9.75073 33.4879 9.69066C34.3172 9.59055 35.1662 9.59055 35.9955 9.69066C36.4892 9.75073 37.0618 9.93093 37.4172 10.2713C38.8981 11.6729 40.3197 13.1145 41.7019 14.5961C42.0376 14.9565 42.2548 15.5372 42.2745 16.0377C42.3535 17.5594 42.2943 19.1011 42.2943 20.6629ZM38.8586 40.3047C39.4312 41.2858 39.9051 42.1267 40.4382 42.9476C40.5369 43.1078 40.8331 43.2079 41.0503 43.2079C42.0376 43.2279 43.0248 43.2279 44.0121 43.2279C46.7962 43.2279 48.5337 44.9699 48.5337 47.793C48.5337 51.437 48.5337 55.0811 48.5337 58.7452C48.5337 59.0055 48.5732 59.3859 48.7312 59.486C49.9752 60.2468 51.0019 61.3681 52.621 61.4882C54.1809 61.5883 55.721 61.9087 57.3006 62.1289C57.2809 61.9487 57.2809 61.8486 57.2414 61.7485C55.9974 57.3436 54.8127 52.8987 53.4898 48.5138C52.621 45.6706 50.6662 43.8086 47.8624 42.9276C46.1446 42.387 44.407 41.9265 42.6892 41.4259C41.4452 41.0455 40.2408 40.6851 38.8586 40.3047ZM22.1936 40.565C19.4095 41.3659 16.8624 42.0867 14.335 42.8475C11.3337 43.7685 9.33948 45.7507 8.4312 48.8141C7.46368 52.1178 6.5554 55.4215 5.62738 58.7251C5.31145 59.8264 5.01528 60.9076 4.67961 62.1089C5.5484 61.9888 6.29871 61.9087 7.04903 61.7886C8.94457 61.4682 10.9388 61.5283 12.5185 60.0666C12.8936 59.7263 13.0516 59.466 13.0516 58.9654C13.0318 55.2413 13.0318 51.5171 13.0516 47.813C13.0516 44.9298 14.7694 43.2279 17.6127 43.2079C18.4815 43.2079 19.3306 43.2279 20.1994 43.1879C20.4165 43.1879 20.693 43.0677 20.8115 42.9276C21.2458 42.2268 21.6605 41.486 22.1936 40.565ZM15.4605 67.2346C15.263 68.9165 15.8357 69.5972 17.4745 69.5972C26.3401 69.5972 35.2057 69.5972 44.0911 69.5972C45.7102 69.5972 46.3025 68.9165 46.1051 67.2346C35.8771 67.2346 25.6688 67.2346 15.4605 67.2346ZM48.3955 69.5972C51.3376 69.5972 54.4178 69.5972 57.4783 69.5972C57.5771 69.5972 57.6758 69.5772 57.7745 69.5372C58.8408 69.2769 59.5713 68.3559 59.5911 67.2746C59.6306 66.0933 58.821 64.892 57.6955 64.6517C56.4516 64.3914 55.1681 64.2513 53.9044 64.0511C52.0681 63.7708 50.1529 63.7708 48.672 62.3892C48.6522 62.3692 48.5732 62.4092 48.3955 62.4293C48.3955 64.7919 48.3955 67.1745 48.3955 69.5972ZM13.1108 62.6896C12.3013 63.05 11.6694 63.4104 10.9783 63.6106C10.2675 63.8108 9.51719 63.8308 8.80636 63.951C7.34521 64.1712 5.88407 64.3514 4.44266 64.6317C3.19871 64.872 2.27069 66.2135 2.38916 67.4548C2.50763 68.7363 3.53438 69.6172 4.93629 69.6172C5.9433 69.6172 6.95031 69.6172 7.95731 69.6172C9.71464 69.6172 11.4917 69.6172 13.0911 69.6172C13.1108 67.2747 13.1108 64.9921 13.1108 62.6896ZM27.663 40.8453C28.7095 43.2279 28.7095 43.2279 31.1185 43.2279C31.4541 43.2279 31.8095 43.2479 32.1452 43.2279C32.3032 43.2079 32.5204 43.1679 32.5796 43.0477C32.9745 42.3469 33.3497 41.6261 33.7446 40.8653C31.6516 40.8453 29.6968 40.8453 27.663 40.8453ZM42.3337 28.031C43.242 27.8909 43.7752 27.3102 43.7949 26.4493C43.8344 25.5082 43.321 24.8876 42.3337 24.6873C42.3337 25.7886 42.3337 26.9098 42.3337 28.031ZM18.4815 28.0511C18.4815 26.8898 18.4815 25.7886 18.4815 24.6873C17.5535 24.9076 17.0401 25.4882 17.0204 26.3091C17.0006 27.1501 17.514 27.7908 18.4815 28.0511ZM24.8395 40.7852C24.3458 41.6462 23.9115 42.367 23.4376 43.1679C24.3853 43.1679 25.2344 43.1679 26.1624 43.1679C25.728 42.367 25.3134 41.6462 24.8395 40.7852ZM37.7923 43.1679C37.3185 42.367 36.9038 41.6662 36.4102 40.8453C35.9758 41.6662 35.6006 42.407 35.2057 43.1679C36.114 43.1679 36.9038 43.1679 37.7923 43.1679Z" fill="#206FE6"/>
<path d="M23.0821 56.2624C24.3063 57.2035 25.4121 58.0244 26.4981 58.8653C27.2484 59.446 27.4261 60.1067 26.9719 60.7074C26.5376 61.308 25.8465 61.3481 25.0961 60.7875C23.6547 59.7063 22.2133 58.605 20.7917 57.5038C19.9426 56.8431 19.8834 56.1423 20.6535 55.3815C21.7197 54.2802 22.8057 53.179 23.8917 52.0978C24.5038 51.4771 25.2146 51.4571 25.7082 51.9777C26.1821 52.4782 26.1624 53.179 25.57 53.7597C24.7802 54.6006 23.9707 55.3815 23.0821 56.2624Z" fill="#206FE6"/>
<path d="M39.6484 56.2424C38.7796 55.3814 37.9898 54.6406 37.2395 53.8597C36.5681 53.199 36.5089 52.4982 37.042 51.9576C37.5751 51.4371 38.2465 51.4971 38.9178 52.1579C39.9643 53.219 41.0108 54.2602 42.0573 55.3414C42.8471 56.1623 42.8076 56.8431 41.9191 57.5238C40.4974 58.625 39.056 59.7062 37.6146 60.8075C36.8841 61.3681 36.1732 61.308 35.7388 60.6873C35.3242 60.0867 35.4822 59.446 36.193 58.8853C37.2987 58.0444 38.4044 57.1834 39.6484 56.2424Z" fill="#206FE6"/>
<path d="M35.6401 52.6384C35.4229 53.0989 35.3242 53.4193 35.1662 53.6796C33.6853 55.9421 32.2045 58.2046 30.7038 60.4671C30.2102 61.2079 29.5586 61.4082 28.9465 61.0077C28.3344 60.6073 28.2357 59.9065 28.7095 59.1657C30.2102 56.8631 31.7306 54.5606 33.2509 52.258C33.5866 51.7574 34.0605 51.4371 34.6331 51.6974C35.028 51.8776 35.3045 52.298 35.6401 52.6384Z" fill="#206FE6"/>
<path d="M30.4471 27.6307C30.8618 27.6307 31.158 27.6107 31.4344 27.6307C32.1057 27.6908 32.5401 28.1513 32.5599 28.792C32.5796 29.4327 32.1452 29.9133 31.4936 30.0134C29.4204 30.2937 28.0975 29.1524 28.0975 27.0501C28.0975 26.4494 28.0777 25.8488 28.0975 25.2481C28.1172 24.5273 28.5911 24.0467 29.2427 24.0267C29.8745 24.0067 30.4076 24.4872 30.4471 25.188C30.4866 25.9689 30.4471 26.7297 30.4471 27.6307Z" fill="#206FE6"/>
<path d="M30.5853 34.3781C29.7165 34.0978 28.8675 33.8776 28.0579 33.5172C27.3274 33.1968 27.1102 32.456 27.4458 31.8353C27.7618 31.2346 28.4134 31.0344 29.1044 31.3948C30.1312 31.9354 31.1185 31.9154 32.1452 31.4148C32.9153 31.0344 33.5866 31.2547 33.8828 31.9354C34.179 32.5761 33.9223 33.2569 33.1522 33.5572C32.3427 33.8976 31.4739 34.1178 30.5853 34.3781Z" fill="#206FE6"/>
<path d="M35.9956 19.2415C36.7656 19.4417 37.4567 19.5618 38.0886 19.8021C38.7204 20.0423 38.9376 20.663 38.7402 21.2837C38.5427 21.8644 37.9109 22.2448 37.3185 22.0245C36.3115 21.6441 35.4032 21.8043 34.4752 22.2248C33.7446 22.5451 33.093 22.2648 32.8363 21.6041C32.5797 20.9634 32.8363 20.3227 33.5472 20.0423C34.3567 19.702 35.2058 19.5017 35.9956 19.2415Z" fill="#206FE6"/>
<path d="M28.1567 20.8433C28.1567 21.8844 27.4261 22.4851 26.6363 22.1848C25.57 21.7843 24.563 21.7042 23.4968 22.1247C22.9242 22.3449 22.4503 22.0046 22.1936 21.4439C21.9369 20.8633 22.1344 20.3627 22.628 20.0023C23.7732 19.1814 26.577 19.2215 27.7025 20.1225C27.9395 20.3227 28.0579 20.7031 28.1567 20.8433Z" fill="#206FE6"/>
<path d="M23.6943 24.7875C23.714 23.7063 24.3064 22.8053 25.037 22.8253C25.728 22.8453 26.3007 23.7063 26.3204 24.7474C26.3401 25.8486 25.728 26.7897 24.9777 26.7697C24.2471 26.7697 23.6745 25.8687 23.6943 24.7875Z" fill="#206FE6"/>
<path d="M36.9828 25.1879C36.9828 26.5094 36.4102 27.3704 35.6796 27.3503C34.9688 27.3503 34.3962 26.5294 34.3962 25.4482C34.3962 25.0878 34.4752 24.7074 34.5936 24.367C34.7713 23.8464 35.1268 23.3259 35.6994 23.466C36.114 23.5661 36.5089 24.0267 36.7854 24.4071C36.9828 24.6473 36.9631 25.0478 36.9828 25.1879Z" fill="#206FE6"/>
</g>
<defs>
<clipPath id="clip0_1456_230">
<rect width="62" height="72" fill="white"/>
</clipPath>
</defs>
</svg>
