<svg width="13" height="12" viewBox="0 0 13 12" fill="none"
                                    xmlns="http://www.w3.org/2000/svg">
                                    <g clip-path="url(#clip0_1456_3477)">
                                        <path
                                            d="M12.5 10.5806C11.8548 10.5806 11.2097 10.5806 10.5645 10.5806C10.5645 8.12903 10.5645 5.80645 10.5645 3.35484C7.59677 6.32258 4.75806 9.16129 1.91935 12C1.40323 11.4839 1.01613 11.0968 0.5 10.5806C3.33871 7.74194 6.17742 4.90323 9.14516 1.93548C6.69355 1.93548 4.24193 1.93548 1.91935 1.93548C1.91935 1.29032 1.91935 0.645162 1.91935 -6.2042e-08C5.40323 -2.14327e-07 9.01613 -3.72252e-07 12.5 -5.24537e-07C12.5 3.48387 12.5 7.09677 12.5 10.5806Z"
                                            fill="#206FE6" />
                                    </g>
                                    <defs>
                                        <clipPath id="clip0_1456_3477">
                                            <rect width="12" height="12" fill="white"
                                                transform="translate(0.5 12) rotate(-90)" />
                                        </clipPath>
                                    </defs>
                                </svg>