<svg width="28" height="21" viewBox="0 0 28 21" fill="none" xmlns="http://www.w3.org/2000/svg">
                            <path fill-rule="evenodd" clip-rule="evenodd"
                                d="M28 10.3871C28 9.63884 27.3934 9.03226 26.6452 9.03226H1.35484C0.606581 9.03226 0 9.63884 0 10.3871C0 11.1354 0.606581 11.7419 1.35484 11.7419H26.6452C27.3934 11.7419 28 11.1354 28 10.3871Z"
                                fill="#152647" />
                            <path fill-rule="evenodd" clip-rule="evenodd"
                                d="M28 1.35484C28 0.606582 27.3934 0 26.6452 0H1.35484C0.606581 0 0 0.606582 0 1.35484C0 2.1031 0.606581 2.70968 1.35484 2.70968H26.6452C27.3934 2.70968 28 2.1031 28 1.35484Z"
                                fill="#152647" />
                            <path fill-rule="evenodd" clip-rule="evenodd"
                                d="M28 19.4194C28 18.6711 27.3934 18.0645 26.6452 18.0645H1.35484C0.606581 18.0645 0 18.6711 0 19.4194C0 20.1676 0.606581 20.7742 1.35484 20.7742H26.6452C27.3934 20.7742 28 20.1676 28 19.4194Z"
                                fill="#152647" />
                        </svg>