<svg width="21" height="21" viewBox="0 0 21 21" fill="none" xmlns="http://www.w3.org/2000/svg">
<path d="M11.6602 10.5L20.7598 1.40041C21.0801 1.08003 21.0801 0.560612 20.7598 0.24028C20.4394 -0.0800522 19.92 -0.0800932 19.5996 0.24028L10.5 9.33992L1.40041 0.24028C1.08003 -0.0800932 0.560611 -0.0800932 0.24028 0.24028C-0.0800522 0.560653 -0.0800932 1.08007 0.24028 1.40041L9.33988 10.5L0.24028 19.5996C-0.0800932 19.92 -0.0800932 20.4394 0.24028 20.7598C0.400446 20.9199 0.610404 21 0.820363 21C1.03032 21 1.24024 20.9199 1.40045 20.7598L10.5 11.6602L19.5996 20.7598C19.7598 20.9199 19.9697 21 20.1797 21C20.3896 21 20.5996 20.9199 20.7598 20.7598C21.0801 20.4394 21.0801 19.92 20.7598 19.5996L11.6602 10.5Z" fill="#0B163C"/>
</svg>
