<svg width="14" height="17" viewBox="0 0 14 17" fill="none" xmlns="http://www.w3.org/2000/svg">
<path fill-rule="evenodd" clip-rule="evenodd" d="M5.80516 1.5C5.63893 1.5 5.48549 1.58919 5.4032 1.73362L2.05723 7.60685C1.61369 8.38539 1.42756 9.2842 1.52544 10.1749L1.87858 13.3885C1.94141 13.9603 2.39028 14.4132 2.96148 14.4812L5.07853 14.733C6.47609 14.8993 7.89313 14.7551 9.22861 14.3109C9.88815 14.0916 10.4164 13.591 10.6709 12.9442L12.375 8.61363C12.4167 8.50775 12.4455 8.39725 12.4608 8.28451C12.59 7.3324 11.7565 6.52924 10.8099 6.69367L7.39407 7.28694C6.31507 7.47434 5.38316 6.52216 5.59375 5.44744L6.25915 2.05158C6.31515 1.76581 6.09636 1.5 5.80516 1.5ZM4.09987 0.99111C4.44895 0.378361 5.09994 6.31817e-06 5.80515 0C7.04054 -1.10864e-05 7.96871 1.12768 7.73116 2.34001L7.06575 5.73587C7.0629 5.75042 7.06443 5.75931 7.06644 5.76569C7.0689 5.77355 7.07397 5.78276 7.08233 5.7913C7.09068 5.79984 7.09978 5.8051 7.10759 5.80774C7.11392 5.80988 7.12278 5.8116 7.13739 5.80906L10.5532 5.21579C12.4994 4.87777 14.2128 6.52891 13.9471 8.48627C13.9157 8.71806 13.8565 8.94522 13.7708 9.16289L12.0668 13.4935C11.6495 14.5539 10.7834 15.3746 9.70202 15.7343C8.15718 16.2481 6.518 16.4148 4.90134 16.2225L2.78429 15.9707C1.52009 15.8203 0.526617 14.8179 0.387554 13.5524L0.0344112 10.3387C-0.0980041 9.13369 0.153815 7.91766 0.753891 6.86434L4.09987 0.99111Z" fill="#152647"/>
</svg>
