<svg width="23" height="23" viewBox="0 0 23 23" fill="none" xmlns="http://www.w3.org/2000/svg">
                            <path fill-rule="evenodd" clip-rule="evenodd"
                                d="M2.96247 8.93655C5.30948 14.0502 9.48594 18.1156 14.6778 20.3185L14.6942 20.3255L15.6972 20.7728C16.9744 21.3422 18.4757 20.9378 19.2945 19.8038L20.968 17.4864C21.0702 17.3448 21.0438 17.148 20.908 17.0383L17.9866 14.6801C17.8414 14.5629 17.6278 14.5902 17.5167 14.7402L16.3797 16.2754C16.1036 16.6482 15.6049 16.7777 15.1824 16.5864C11.3002 14.8285 8.18051 11.707 6.42361 7.82256C6.23239 7.39979 6.36187 6.90083 6.73447 6.62454L8.26873 5.48687C8.41865 5.37571 8.44593 5.16203 8.32877 5.01672L5.97161 2.0932C5.86206 1.95733 5.66542 1.93094 5.52395 2.03312L3.19535 3.71514C2.0545 4.53921 1.65273 6.05395 2.23506 7.3356L2.96168 8.93485C2.96195 8.93542 2.96221 8.93599 2.96247 8.93655ZM13.9006 22.1295C8.25923 19.7334 3.72182 15.3147 1.17162 9.75721L1.17009 9.75387L0.441943 8.15127C-0.528607 6.01517 0.141006 3.49061 2.04242 2.11716L4.37102 0.435141C5.3613 -0.280161 6.73778 -0.0954191 7.50465 0.855714L9.86181 3.77923C10.682 4.79642 10.4909 6.29217 9.44151 7.07032L8.56235 7.72223C10.0474 10.6055 12.4011 12.9605 15.2826 14.4464L15.9342 13.5667C16.7119 12.5167 18.2068 12.3256 19.2234 13.1462L22.1448 15.5044C23.0956 16.272 23.2801 17.6498 22.5646 18.6406L20.8911 20.958C19.5263 22.8481 17.0243 23.522 14.8956 22.5731L13.9006 22.1295Z"
                                fill="#152647" />
                        </svg>