<svg width="50" height="50" viewBox="0 0 50 50" fill="none" xmlns="http://www.w3.org/2000/svg">
    <rect width="50" height="50" rx="10" fill="#206FE6" />
    <path fill-rule="evenodd" clip-rule="evenodd"
        d="M32.047 34.3449L32.0479 34.3426L32.0707 34.2856L36 14.4753V14.4109C36 13.9174 35.8176 13.4865 35.4208 13.228C35.0734 13.0017 34.6741 12.9856 34.3941 13.0069C34.0979 13.0294 33.8187 13.1033 33.6253 13.1648C33.5259 13.1965 33.4426 13.227 33.3831 13.25C33.3532 13.2616 33.329 13.2715 33.3114 13.2788L33.2941 13.2861L11.3863 21.8802L11.3803 21.8823C11.3685 21.8866 11.3528 21.8925 11.3339 21.8998C11.2962 21.9145 11.245 21.9355 11.1847 21.9628C11.0664 22.0164 10.903 22.0991 10.7372 22.2126C10.4557 22.4054 9.91965 22.8618 10.0102 23.5854C10.0851 24.1847 10.4983 24.5654 10.7768 24.7624C10.9261 24.8681 11.069 24.9443 11.1735 24.9941C11.2265 25.0193 11.2716 25.0386 11.3051 25.0523C11.3219 25.0591 11.336 25.0646 11.3468 25.0687L11.3608 25.0739L11.3697 25.0772L15.2026 26.3676C15.1896 26.6081 15.2135 26.8533 15.2773 27.0952L17.1972 34.3783C17.4248 35.2419 18.2061 35.8434 19.0991 35.8428C19.8996 35.8422 20.6096 35.3579 20.9112 34.6354L23.9087 31.4303L29.0568 35.3772L29.13 35.4092C29.5977 35.6133 30.0347 35.6779 30.4343 35.6233C30.8332 35.5688 31.1503 35.4015 31.3884 35.211C31.6228 35.0235 31.7834 34.8119 31.8844 34.6526C31.9357 34.5716 31.974 34.5005 32.0005 34.4469C32.0139 34.4201 32.0244 34.3973 32.0322 34.3796L32.0421 34.3567L32.0456 34.3483L32.047 34.3449ZM17.1777 26.5942C17.1341 26.4287 17.2026 26.2539 17.3471 26.1622L30.3478 17.9061C30.3478 17.9061 31.1124 17.4419 31.0851 17.9061C31.0851 17.9061 31.2216 17.9881 30.8118 18.3704C30.4232 18.7334 21.5459 27.3041 20.6476 28.1713C20.5958 28.2214 20.5648 28.2788 20.5466 28.3486L19.0976 33.8773L17.1777 26.5942Z"
        fill="white" />
</svg>