<svg width="50" height="50" viewBox="0 0 50 50" fill="none"
                                        xmlns="http://www.w3.org/2000/svg">
                
                                        <path fill-rule="evenodd" clip-rule="evenodd"
                                            d="M13.1306 36.237C13.0238 36.6247 13.377 36.9825 13.7661 36.8809L19.7809 35.3099C21.6795 36.3383 23.8171 36.8846 25.9936 36.8846H26C33.1619 36.8846 39 31.0804 39 23.9456C39 20.4874 37.6501 17.2349 35.1962 14.7923C32.7422 12.3498 29.4808 11 25.9999 11C18.8381 11 13 16.8043 13 23.9392C12.9992 26.2089 13.5983 28.439 14.7372 30.4054L13.1306 36.237ZM21.8798 17.7492C22.1186 17.7556 22.3834 17.7685 22.6354 18.3277C22.8024 18.7 23.0839 19.3854 23.3131 19.9437C23.4915 20.3782 23.6383 20.7357 23.6751 20.8089C23.759 20.976 23.8107 21.1688 23.7009 21.3937C23.6879 21.4203 23.6757 21.4456 23.6639 21.4701C23.5759 21.6528 23.5132 21.7829 23.3651 21.953C23.3042 22.0229 23.2408 22.0995 23.1776 22.1759C23.0664 22.3102 22.956 22.4437 22.8613 22.5379C22.6935 22.7049 22.519 22.8851 22.7128 23.2193C22.9066 23.5535 23.5847 24.6526 24.5857 25.5397C25.6618 26.4978 26.5976 26.9015 27.0707 27.1056C27.1625 27.1452 27.2369 27.1773 27.2915 27.2045C27.6274 27.3716 27.8275 27.3459 28.0212 27.121C28.2151 26.8959 28.8608 26.1438 29.0869 25.8096C29.3065 25.4754 29.5324 25.5269 29.8425 25.6425C30.1524 25.7582 31.8057 26.5681 32.1415 26.7352C32.2078 26.7683 32.2699 26.798 32.3275 26.8256C32.5611 26.9377 32.7199 27.0138 32.7873 27.1274C32.8712 27.2687 32.8712 27.9373 32.5935 28.7214C32.3094 29.5056 30.9403 30.2577 30.3203 30.3155C30.2616 30.3211 30.2032 30.3281 30.1431 30.3354C29.5749 30.4041 28.8537 30.4914 26.2841 29.4799C23.1177 28.2348 21.0276 25.1455 20.605 24.5209C20.5717 24.4716 20.5487 24.4377 20.5364 24.4212L20.5293 24.4116C20.337 24.1544 19.1609 22.5806 19.1609 20.9568C19.1609 19.4032 19.9262 18.5944 20.2752 18.2254C20.2974 18.2021 20.3178 18.1805 20.3363 18.1605C20.6462 17.8263 21.0079 17.7428 21.2339 17.7428C21.46 17.7428 21.686 17.7428 21.8798 17.7492Z"
                                            fill="white" />
                                    </svg>