<svg width="146" height="46" viewBox="0 0 146 46" fill="none" xmlns="http://www.w3.org/2000/svg">
<path d="M68.3972 8.80021H61.0024L61.0246 21.4137H57.4492V5.8689H68.4195L68.3972 8.80021Z" fill="#152647"/>
<path d="M70.6129 5.8689H74.1882V15.9952L81.6053 5.8689H84.9808V21.4137H81.4277V11.3096L74.0106 21.4137H70.6129V5.8689Z" fill="#152647"/>
<path d="M103.019 5.8689V21.4137H99.4439V8.80021H92.4265V21.4137H88.8512V5.8689H103.019Z" fill="#152647"/>
<path d="M118.909 18.5268V21.4137H106.873V5.8689H118.62V8.75579H110.448V12.1312H117.665V14.9293H110.448V18.5268H118.909Z" fill="#152647"/>
<path d="M128.543 5.8689C129.92 5.8689 131.112 6.09837 132.119 6.55731C133.14 7.01625 133.925 7.66766 134.472 8.51152C135.02 9.35538 135.294 10.3547 135.294 11.5094C135.294 12.6494 135.02 13.6487 134.472 14.5074C133.925 15.3512 133.14 16.0026 132.119 16.4616C131.112 16.9057 129.92 17.1278 128.543 17.1278H125.412V21.4137H121.815V5.8689H128.543ZM128.343 14.1965C129.424 14.1965 130.246 13.967 130.808 13.5081C131.371 13.0343 131.652 12.3681 131.652 11.5094C131.652 10.636 131.371 9.96977 130.808 9.51083C130.246 9.03708 129.424 8.80021 128.343 8.80021H125.412V14.1965H128.343Z" fill="#152647"/>
<path d="M63.4673 35.7722H60.9802V42.0346H57.4048V26.4897H60.9802V32.7743H63.5562L67.6422 26.4897H71.4396L66.3542 33.9957L71.5951 42.0346H67.509L63.4673 35.7722Z" fill="#152647"/>
<path d="M87.597 26.4897L80.9794 38.7924C80.3428 39.9767 79.5729 40.8724 78.6699 41.4794C77.7816 42.0864 76.8119 42.3899 75.7608 42.3899C74.9465 42.3899 74.1026 42.2122 73.2292 41.8569L74.0952 39.1255C74.717 39.3179 75.2352 39.4142 75.6497 39.4142C76.0939 39.4142 76.4936 39.3105 76.8489 39.1033C77.2042 38.8812 77.5299 38.5407 77.826 38.0817L77.9592 37.9041L71.8301 26.4897H75.6719L79.8024 34.8395L84.0661 26.4897H87.597Z" fill="#152647"/>
<path d="M89.3066 26.4897H101.854V29.3544H92.8819V32.5522H97.1901C99.0702 32.5522 100.499 32.9446 101.476 33.7292C102.468 34.5138 102.964 35.6464 102.964 37.1269C102.964 38.6813 102.416 39.8879 101.321 40.7466C100.225 41.6052 98.6779 42.0346 96.6793 42.0346H89.3066V26.4897ZM96.4794 39.3697C97.3973 39.3697 98.1005 39.1921 98.5891 38.8368C99.0776 38.4667 99.3219 37.9337 99.3219 37.2379C99.3219 35.8759 98.3744 35.1948 96.4794 35.1948H92.8819V39.3697H96.4794Z" fill="#152647"/>
<circle cx="141.965" cy="6.34478" r="2.82241" stroke="#152647" stroke-width="0.7"/>
<path d="M143.196 7.93113L142.435 6.86044C142.349 6.86996 142.261 6.87472 142.169 6.87472H141.274V7.93113H140.922V4.6001H142.169C142.594 4.6001 142.927 4.70161 143.168 4.90465C143.409 5.10768 143.53 5.38686 143.53 5.74217C143.53 6.0023 143.463 6.22279 143.33 6.40361C143.2 6.58127 143.012 6.70975 142.768 6.78906L143.582 7.93113H143.196ZM142.159 6.57493C142.489 6.57493 142.741 6.50196 142.916 6.35603C143.09 6.2101 143.177 6.00548 143.177 5.74217C143.177 5.47251 143.09 5.2663 142.916 5.12355C142.741 4.97761 142.489 4.90465 142.159 4.90465H141.274V6.57493H142.159Z" fill="#152647"/>
<path fill-rule="evenodd" clip-rule="evenodd" d="M12.5109 0.910717C13.1042 0.327081 13.9032 0 14.7355 0H31.1621C31.9944 0 32.7933 0.327079 33.3867 0.910717L44.9497 12.2842C45.5561 12.8806 45.8975 13.6955 45.8975 14.5459V30.9607C45.8975 31.7888 45.5738 32.584 44.9954 33.1766L33.4134 45.0434C32.8164 45.6551 31.9978 46 31.1431 46H14.7432C13.9018 46 13.0949 45.6658 12.4999 45.0708L0.929178 33.5001C0.334235 32.9051 0 32.0982 0 31.2568V14.5459C0 13.6955 0.341475 12.8806 0.947794 12.2842L12.5109 0.910717ZM31.1621 3.17241L14.7355 3.17241L3.17241 14.5459V31.2568L14.7432 42.8276H31.1431L42.7251 30.9607V14.5459L31.1621 3.17241Z" fill="#152647"/>
<path fill-rule="evenodd" clip-rule="evenodd" d="M17.7253 14.7769H1.68866V13.1907H17.7253C19.0393 13.1907 20.1046 14.2559 20.1046 15.57V30.1229C20.1046 31.4369 19.0393 32.5022 17.7253 32.5022H1.68866V30.916H17.7253C18.1633 30.916 18.5184 30.5609 18.5184 30.1229V15.57C18.5184 15.132 18.1633 14.7769 17.7253 14.7769Z" fill="#152647"/>
<path fill-rule="evenodd" clip-rule="evenodd" d="M31.8869 1.96901L20.8253 13.0306C20.358 13.4979 20.3611 14.2565 20.8323 14.72L31.089 24.8085C31.5491 25.2612 32.2863 25.2642 32.7503 24.8155L44.1381 13.801L44.6895 14.3711L33.3016 25.3856C32.5284 26.1335 31.2998 26.1283 30.5328 25.3739L20.2761 15.2854C19.4909 14.513 19.4856 13.2487 20.2645 12.4698L31.3261 1.4082L31.8869 1.96901Z" fill="#152647"/>
<path fill-rule="evenodd" clip-rule="evenodd" d="M15.6723 27.1743C15.2343 27.1743 14.8792 27.5294 14.8792 27.9674V44.4139H13.293V27.9674C13.293 26.6534 14.3583 25.5881 15.6723 25.5881H30.1228C31.4368 25.5881 32.5021 26.6534 32.5021 27.9674V44.0041H30.9159V27.9674C30.9159 27.5294 30.5608 27.1743 30.1228 27.1743H15.6723Z" fill="#152647"/>
<path fill-rule="evenodd" clip-rule="evenodd" d="M13.0881 18.1351V1.58618H14.6743V18.1351C14.6743 18.5731 15.0294 18.9282 15.4674 18.9282H30.2252C30.6632 18.9282 31.0183 18.5731 31.0183 18.1351V1.99601H32.6045V18.1351C32.6045 19.4492 31.5393 20.5144 30.2252 20.5144H15.4674C14.1534 20.5144 13.0881 19.4492 13.0881 18.1351Z" fill="#152647"/>
<path fill-rule="evenodd" clip-rule="evenodd" d="M25.8954 15.57C25.8954 14.2559 26.9607 13.1907 28.2747 13.1907H44.3114V14.7769H28.2747C27.8367 14.7769 27.4816 15.132 27.4816 15.57V30.1229C27.4816 30.5609 27.8367 30.916 28.2747 30.916H44.3114V32.5022H28.2747C26.9607 32.5022 25.8954 31.4369 25.8954 30.1229V15.57Z" fill="#152647"/>
<path fill-rule="evenodd" clip-rule="evenodd" d="M25.2691 13.1345L13.9093 1.8678L14.4678 1.30469L25.8276 12.5714C26.6119 13.3492 26.6093 14.6179 25.822 15.3925L15.3926 25.6537C14.612 26.4218 13.3564 26.4115 12.5885 25.6307L1.40594 14.2618L1.97137 13.7056L13.1539 25.0745C13.6147 25.543 14.368 25.5492 14.8364 25.0883L25.2657 14.8272C25.7382 14.3624 25.7397 13.6012 25.2691 13.1345Z" fill="#152647"/>
<path fill-rule="evenodd" clip-rule="evenodd" d="M20.2537 12.4711L31.12 1.51196L31.6832 2.07038L20.8169 13.0296C20.3529 13.4974 20.3577 14.2533 20.8274 14.7153L28.5285 22.2901L30.5375 20.3141C31.3021 19.562 32.5262 19.5542 33.3002 20.2966L35.3861 22.2969L44.1393 13.9024L44.6883 14.4748L35.959 22.8464L44.6883 31.2179L44.1393 31.7903L35.3861 23.3958L33.3002 25.3961C32.5262 26.1385 31.3021 26.1307 30.5375 25.3787L28.5285 23.4026L23.5425 28.3068L25.4138 30.1162C26.2011 30.8775 26.2221 32.1329 25.4608 32.9201L23.2784 35.1764L31.6843 43.726L31.1188 44.282L22.7269 35.7467L14.4736 44.2797L13.9035 43.7283L22.1707 35.1809L20.243 33.2203C19.4754 32.4396 19.4859 31.1844 20.2665 30.4167L22.4066 28.3116L14.7315 20.8903C14.2634 20.4377 13.5184 20.4455 13.0599 20.9079L1.97022 32.0907L1.40707 31.5322L12.4967 20.3494C13.2609 19.5788 14.5026 19.5658 15.2829 20.3202L22.9722 27.7553L27.963 22.8464L20.2713 15.2807C19.4884 14.5107 19.4805 13.251 20.2537 12.4711ZM22.9769 28.8631L20.8226 30.9821C20.3543 31.4428 20.348 32.1959 20.8086 32.6643L22.7222 34.6107L24.8907 32.3687C25.3475 31.8964 25.3349 31.1432 24.8625 30.6864L22.9769 28.8631ZM29.094 22.8464L31.0936 24.8132C31.5524 25.2645 32.2868 25.2691 32.7513 24.8237L34.8131 22.8464L32.7513 20.869C32.2868 20.4236 31.5524 20.4282 31.0936 20.8795L29.094 22.8464Z" fill="#152647"/>
</svg>
