<svg width="144" height="36" viewBox="0 0 144 36" fill="none" xmlns="http://www.w3.org/2000/svg">
<path fill-rule="evenodd" clip-rule="evenodd" d="M0.590576 27.6468L13.4905 16.2608L21.8475 24.6977L27.8978 20.8455L27.4678 30.47L22.5957 33.4707L10.1903 20.057L0.972856 28.1412L0.590576 27.6468Z" fill="#152647"/>
<path fill-rule="evenodd" clip-rule="evenodd" d="M6.22778 19.1058L14.2166 12.0541L28.4741 7.59772L28.0391 17.3328L22.9559 21.2391L14.5957 12.581L6.59173 19.605L6.22778 19.1058Z" fill="#152647"/>
<path fill-rule="evenodd" clip-rule="evenodd" d="M89.8219 10.4871L89.554 14.9941H95.026L94.5341 27.8073H101.078L101.836 14.9941L107.484 14.9972L107.747 10.5345L89.8219 10.4871Z" fill="#152647"/>
<path fill-rule="evenodd" clip-rule="evenodd" d="M104.534 27.7255L113.621 10.5196H121.542L128.093 27.7255L121.206 27.7953L119.965 23.6298H113.351L111.492 27.7953L104.534 27.7255ZM115.074 19.5284L117.366 14.816L118.907 19.5428L115.074 19.5284Z" fill="#152647"/>
<path fill-rule="evenodd" clip-rule="evenodd" d="M54.7733 10.551L53.7261 27.8072H69.2002L69.3954 23.2154H60.4578L60.5305 21.2474H68.009L68.0725 16.9154H60.8611V14.8044H69.8618L69.9949 10.4174L54.7733 10.551Z" fill="#152647"/>
<path fill-rule="evenodd" clip-rule="evenodd" d="M34.5726 10.4775L33.8098 27.7669H46.4936C51.8767 27.7366 53.3284 19.7852 47.6966 18.9032C51.8593 18.0411 52.7425 11.2749 47.5062 10.4777L34.5726 10.4775ZM40.5311 14.3113L40.4054 17.0144H43.7032C45.2532 16.845 45.1074 14.4195 43.5116 14.3115L40.5311 14.3113ZM40.3338 20.9143L40.2009 23.7433H43.6513C45.275 23.5651 45.1221 21.0287 43.4545 20.9145L40.3338 20.9143Z" fill="#152647"/>
<path fill-rule="evenodd" clip-rule="evenodd" d="M87.2029 10.4325L87.3741 15.1688C83.7861 13.8131 79.5117 14.1667 77.9647 17.6344C77.4069 18.8852 77.3658 19.9767 77.9333 21.2432C79.4068 24.5331 83.9792 24.0948 87.1165 22.9559L86.2644 27.9475C78.8363 28.484 73.6893 28.1046 71.7044 23.0378C70.8463 20.8463 70.7582 18.9303 71.4825 16.7087C73.5109 10.4879 79.8035 9.73165 87.2029 10.4325Z" fill="#152647"/>
<path fill-rule="evenodd" clip-rule="evenodd" d="M36.1061 34.787L34.7798 32.836L36.0513 30.9507H37.1419L35.8321 32.836L37.2844 34.787H36.1061ZM33.8098 34.787V30.9507H34.7525V34.787H33.8098ZM38.8601 33.5868V34.787H37.9174V30.9507H39.556C39.9506 30.9507 40.2749 31.0786 40.5288 31.3343C40.7827 31.5901 40.9097 31.9043 40.9097 32.2769C40.9097 32.646 40.7809 32.9565 40.5233 33.2086C40.2657 33.4608 39.9433 33.5868 39.556 33.5868H38.8601ZM39.4738 31.8056H38.8601V32.7373H39.4738C39.62 32.7373 39.7378 32.6935 39.8273 32.6058C39.9168 32.5181 39.9615 32.4066 39.9615 32.2715C39.9615 32.1363 39.9168 32.0248 39.8273 31.9371C39.7378 31.8494 39.62 31.8056 39.4738 31.8056ZM44.3049 32.0988C44.1038 31.8924 43.8408 31.7892 43.5156 31.7892C43.1905 31.7892 42.9274 31.8924 42.7264 32.0988C42.5255 32.3052 42.4251 32.5619 42.4251 32.8688C42.4251 33.183 42.5255 33.4425 42.7264 33.6471C42.9274 33.8516 43.1905 33.954 43.5156 33.954C43.8408 33.954 44.1038 33.8516 44.3049 33.6471C44.5058 33.4425 44.6062 33.183 44.6062 32.8688C44.6062 32.5619 44.5058 32.3052 44.3049 32.0988ZM44.9981 34.3019C44.6309 34.6801 44.1367 34.8691 43.5156 34.8691C42.8946 34.8691 42.4004 34.6801 42.0332 34.3019C41.666 33.9238 41.4824 33.4461 41.4824 32.8688C41.4824 32.2952 41.666 31.8185 42.0332 31.4385C42.4004 31.0584 42.8946 30.8685 43.5156 30.8685C44.1367 30.8685 44.6309 31.0584 44.9981 31.4385C45.3653 31.8185 45.5489 32.2952 45.5489 32.8688C45.5489 33.4461 45.3653 33.9238 44.9981 34.3019ZM49.1467 31.8988C49.1467 32.0851 49.0929 32.2578 48.9851 32.4167C48.8773 32.5756 48.7375 32.6971 48.5658 32.7812C48.7814 32.8615 48.9567 32.9894 49.0919 33.1648C49.2271 33.3402 49.2947 33.5374 49.2947 33.7566C49.2947 34.0453 49.1879 34.2892 48.9741 34.4883C48.7604 34.6874 48.4928 34.787 48.1713 34.787H46.3244V30.9507H47.7493C47.8588 30.9507 48.0123 30.958 48.2096 30.9726C48.48 30.9909 48.7038 31.0886 48.8809 31.2658C49.0581 31.443 49.1467 31.654 49.1467 31.8988ZM47.267 34.0635H47.8808C48.0087 34.0635 48.1183 34.0206 48.2096 33.9347C48.3009 33.8489 48.3466 33.7438 48.3466 33.6197C48.3466 33.4954 48.3009 33.3903 48.2096 33.3045C48.1183 33.2187 48.0087 33.1758 47.8808 33.1758H47.267V34.0635ZM48.2645 32.0851C48.2645 31.9719 48.2214 31.876 48.1356 31.7974C48.0497 31.7188 47.9502 31.6796 47.837 31.6796H47.267V32.5017H47.837C47.9502 32.5017 48.0497 32.4615 48.1356 32.3811C48.2214 32.3007 48.2645 32.202 48.2645 32.0851ZM49.7742 34.787V33.9375H49.9168C50.1433 33.9375 50.3058 33.8252 50.4045 33.6005C50.5032 33.3757 50.5525 32.9602 50.5525 32.3537V30.9507H53.4187V34.787H52.4706V31.8056H51.4567V32.5455C51.4567 32.8999 51.4311 33.2114 51.38 33.4799C51.3288 33.7484 51.2604 33.964 51.1745 34.1266C51.0887 34.2892 50.9809 34.4216 50.8512 34.5239C50.7215 34.6262 50.5872 34.6956 50.4483 34.7322C50.3095 34.7687 50.1542 34.787 49.9825 34.787H49.7742ZM56.7151 34.787V32.54L55.3012 34.787H54.3585V30.9507H55.3012V33.2086L56.7151 30.9507H57.6632V34.787H56.7151ZM65.2811 34.787V34.3759H65.155C64.6801 34.3759 64.2864 34.2298 63.974 33.9375C63.6616 33.6452 63.5054 33.2634 63.5054 32.7921C63.5054 32.3098 63.6634 31.9253 63.9795 31.6385C64.2955 31.3517 64.6873 31.2083 65.155 31.2083H65.2811V30.8411H66.2292V31.2083H66.3497C66.8247 31.2083 67.2192 31.3544 67.5335 31.6467C67.8477 31.939 68.0048 32.3207 68.0048 32.7921C68.0048 33.278 67.8468 33.6635 67.5308 33.9484C67.2147 34.2335 66.8211 34.3759 66.3497 34.3759H66.2292V34.787H65.2811ZM66.2292 33.5923H66.3168C66.569 33.5923 66.7662 33.5174 66.9088 33.3675C67.0512 33.2177 67.1225 33.0259 67.1225 32.7921C67.1225 32.5656 67.0503 32.3756 66.906 32.2222C66.7617 32.0687 66.5653 31.992 66.3168 31.992H66.2292V33.5923ZM65.1934 33.5923H65.2811V31.992H65.1934C64.945 31.992 64.7476 32.0687 64.6015 32.2222C64.4554 32.3756 64.3823 32.5656 64.3823 32.7921C64.3823 33.0222 64.4544 33.2131 64.5987 33.3648C64.743 33.5165 64.9413 33.5923 65.1934 33.5923ZM70.8957 30.9507L72.2549 34.787H71.3068L71.0711 34.1349H69.6297L69.3996 34.787H68.446L69.8106 30.9507H70.8957ZM70.3477 32.0742L69.8819 33.384H70.819L70.3477 32.0742ZM74.8115 33.9923C75.2097 33.9923 75.5587 33.89 75.8582 33.6854L76.2363 34.4418C75.8308 34.7267 75.3558 34.8691 74.8115 34.8691C74.1904 34.8691 73.6963 34.6801 73.3291 34.3019C72.9619 33.9238 72.7782 33.4461 72.7782 32.8688C72.7782 32.2952 72.9619 31.8185 73.3291 31.4385C73.6963 31.0584 74.1904 30.8685 74.8115 30.8685C75.3522 30.8685 75.8271 31.0128 76.2363 31.3014L75.8582 32.0577C75.5587 31.8531 75.2097 31.7508 74.8115 31.7508C74.4899 31.7508 74.2296 31.8595 74.0305 32.0769C73.8314 32.2943 73.7318 32.5583 73.7318 32.8688C73.7318 33.1794 73.8314 33.4443 74.0305 33.6635C74.2296 33.8827 74.4899 33.9923 74.8115 33.9923ZM78.9903 30.9507L80.3494 34.787H79.4013L79.1657 34.1349H77.7243L77.4942 34.787H76.5406L77.9052 30.9507H78.9903ZM78.4422 32.0742L77.9764 33.384H78.9136L78.4422 32.0742ZM81.5085 34.787V35.6309H80.681V33.9375H81.1249C81.271 33.6854 81.3761 33.4114 81.4401 33.1154C81.5039 32.8195 81.5359 32.4066 81.5359 31.8769V30.9507H84.3967V33.9375H85.005V35.6309H84.1775V34.787H81.5085ZM83.4541 33.9375V31.8056H82.4402V32.3043C82.4402 32.9474 82.3306 33.4917 82.1114 33.9375H83.4541ZM86.63 33.9375H87.2C87.3497 33.9375 87.4694 33.8937 87.5589 33.806C87.6484 33.7183 87.6932 33.6069 87.6932 33.4717C87.6932 33.3365 87.6484 33.2251 87.5589 33.1374C87.4694 33.0497 87.3497 33.0059 87.2 33.0059H86.63V33.9375ZM86.63 32.1564H87.3424C87.7151 32.1564 88.0247 32.2824 88.2714 32.5346C88.518 32.7867 88.6413 33.099 88.6413 33.4717C88.6413 33.8772 88.5152 34.1978 88.2631 34.4335C88.011 34.6691 87.6639 34.787 87.2218 34.787H85.6874V30.9507H86.63V32.1564ZM88.9537 34.787V30.9507H89.9017V34.787H88.9537ZM98.2704 34.787V32.54L96.8565 34.787H95.9138V30.9507H96.8565V33.2086L98.2704 30.9507H99.2185V34.787H98.2704ZM101.353 34.0526C101.485 34.0526 101.592 34.0097 101.674 33.9238C101.756 33.838 101.797 33.7256 101.797 33.5868C101.797 33.4516 101.755 33.3438 101.671 33.2634C101.587 33.183 101.496 33.1428 101.397 33.1428H100.767V32.5017H101.474C101.569 32.5017 101.666 32.4587 101.767 32.3729C101.867 32.287 101.918 32.1874 101.918 32.0742C101.918 31.95 101.871 31.8458 101.778 31.7618C101.685 31.6778 101.576 31.6357 101.452 31.6357C101.057 31.6357 100.712 31.738 100.416 31.9426L100.032 31.3014C100.442 31.0128 100.915 30.8685 101.452 30.8685C101.876 30.8685 102.201 30.9644 102.427 31.1562C102.654 31.348 102.767 31.5919 102.767 31.8879C102.767 32.0888 102.713 32.2715 102.605 32.4358C102.498 32.6003 102.345 32.7245 102.148 32.8086C102.36 32.8779 102.531 32.9985 102.663 33.1702C102.794 33.342 102.86 33.5374 102.86 33.7566C102.86 34.0709 102.713 34.3348 102.419 34.5485C102.125 34.7623 101.77 34.8691 101.353 34.8691C100.831 34.8691 100.367 34.7267 99.9611 34.4418L100.339 33.7457C100.635 33.9503 100.973 34.0526 101.353 34.0526ZM106.31 32.0988C106.109 31.8924 105.846 31.7892 105.521 31.7892C105.196 31.7892 104.933 31.8924 104.732 32.0988C104.531 32.3052 104.43 32.5619 104.43 32.8688C104.43 33.183 104.531 33.4425 104.732 33.6471C104.933 33.8516 105.196 33.954 105.521 33.954C105.846 33.954 106.109 33.8516 106.31 33.6471C106.511 33.4425 106.612 33.183 106.612 32.8688C106.612 32.5619 106.511 32.3052 106.31 32.0988ZM107.003 34.3019C106.636 34.6801 106.142 34.8691 105.521 34.8691C104.9 34.8691 104.406 34.6801 104.039 34.3019C103.671 33.9238 103.488 33.4461 103.488 32.8688C103.488 32.2952 103.671 31.8185 104.039 31.4385C104.406 31.0584 104.9 30.8685 105.521 30.8685C106.142 30.8685 106.636 31.0584 107.003 31.4385C107.371 31.8185 107.554 32.2952 107.554 32.8688C107.554 33.4461 107.371 33.9238 107.003 34.3019ZM108.017 34.787V33.9375H108.16C108.386 33.9375 108.549 33.8252 108.648 33.6005C108.746 33.3757 108.796 32.9602 108.796 32.3537V30.9507H111.662V34.787H110.714V31.8056H109.7V32.5455C109.7 32.8999 109.674 33.2114 109.623 33.4799C109.572 33.7484 109.503 33.964 109.418 34.1266C109.332 34.2892 109.224 34.4216 109.094 34.5239C108.965 34.6262 108.83 34.6956 108.691 34.7322C108.553 34.7687 108.397 34.787 108.226 34.787H108.017ZM114.503 34.787V33.5868H114.136L113.396 34.787H112.426L113.243 33.4497C113.002 33.3548 112.81 33.2022 112.667 32.9921C112.525 32.7821 112.454 32.5437 112.454 32.2769C112.454 31.9079 112.581 31.5947 112.837 31.337C113.093 31.0795 113.416 30.9507 113.807 30.9507H115.451V34.787H114.503ZM114.503 31.8056H113.895C113.745 31.8056 113.626 31.8494 113.539 31.9371C113.451 32.0248 113.407 32.1363 113.407 32.2715C113.407 32.4066 113.452 32.5181 113.541 32.6058C113.631 32.6935 113.749 32.7373 113.895 32.7373H114.503V31.8056ZM118.737 33.9375V30.9507H119.685V33.9375H120.288V35.6309H119.466V34.787H116.391V30.9507H117.334V33.9375H118.737ZM123.349 34.787V32.54L121.935 34.787H120.992V30.9507H121.935V33.2086L123.349 30.9507H124.297V34.787H123.349ZM127.144 34.787V33.5868H126.777L126.037 34.787H125.067L125.883 33.4497C125.642 33.3548 125.45 33.2022 125.308 32.9921C125.165 32.7821 125.094 32.5437 125.094 32.2769C125.094 31.9079 125.222 31.5947 125.478 31.337C125.733 31.0795 126.057 30.9507 126.448 30.9507H128.092V34.787H127.144ZM127.144 31.8056H126.535C126.386 31.8056 126.267 31.8494 126.179 31.9371C126.092 32.0248 126.048 32.1363 126.048 32.2715C126.048 32.4066 126.092 32.5181 126.182 32.6058C126.272 32.6935 126.389 32.7373 126.535 32.7373H127.144V31.8056Z" fill="#152647"/>
<path fill-rule="evenodd" clip-rule="evenodd" d="M130.557 5.41961C132.533 5.08553 134.111 5.15516 133.904 5.24584C132.396 5.90596 130.326 6.24598 130.058 8.09054C130.01 8.42155 130.458 8.95837 130.83 9.15369C132.812 10.1941 136.79 11.5282 141.701 13.4087C139.85 13.1201 132.042 10.2725 131.873 10.816C131.666 11.4813 140.131 14.8302 143.833 16.9798C138.993 15.042 133.352 12.7066 128.512 10.6048C125.93 9.81144 124.73 9.24512 123.829 8.58966C123.597 8.44907 123.372 8.24511 123.164 7.96886C122.695 7.41642 122.426 6.78261 122.356 6.17499C122.264 5.83166 122.184 5.452 122.12 5.02956L121.819 4.55218C121.397 4.3412 121.23 4.10267 121.081 3.84253C120.913 3.54933 120.701 3.40359 120.354 3.203C120.49 3.04744 120.763 2.98542 120.923 2.95026C120.957 2.83917 120.974 2.72173 121.025 2.6172C121.498 1.63383 122.489 1.59939 123.25 2.08232C123.624 2.31898 124.195 3.23407 124.423 3.37637C124.559 3.4343 124.686 3.49541 124.809 3.55785C126.028 2.90275 125.965 2.50289 126.4 1.63338C127.492 -0.545026 140.271 2.05182 139.848 2.1332C136.875 2.70505 132.345 2.75927 130.557 5.41961Z" fill="#152647"/>
</svg>
