<svg width="183" height="60" viewBox="0 0 183 60" fill="none" xmlns="http://www.w3.org/2000/svg">
<path d="M86.24 11.096H76.916L76.944 27H72.436V7.4H86.268L86.24 11.096ZM89.0337 7.4H93.5417V20.168L102.894 7.4H107.15V27H102.67V14.26L93.3177 27H89.0337V7.4ZM129.894 7.4V27H125.386V11.096H116.538V27H112.03V7.4H129.894ZM149.928 23.36V27H134.752V7.4H149.564V11.04H139.26V15.296H148.36V18.824H139.26V23.36H149.928ZM162.076 7.4C163.812 7.4 165.315 7.68933 166.584 8.268C167.872 8.84667 168.862 9.668 169.552 10.732C170.243 11.796 170.588 13.056 170.588 14.512C170.588 15.9493 170.243 17.2093 169.552 18.292C168.862 19.356 167.872 20.1773 166.584 20.756C165.315 21.316 163.812 21.596 162.076 21.596H158.128V27H153.592V7.4H162.076ZM161.824 17.9C163.187 17.9 164.223 17.6107 164.932 17.032C165.642 16.4347 165.996 15.5947 165.996 14.512C165.996 13.4107 165.642 12.5707 164.932 11.992C164.223 11.3947 163.187 11.096 161.824 11.096H158.128V17.9H161.824Z" fill="#152647"/>
<path d="M80.024 45.104H76.888V53H72.38V33.4H76.888V41.324H80.136L85.288 33.4H90.076L83.664 42.864L90.272 53H85.12L80.024 45.104ZM110.448 33.4L102.104 48.912C101.302 50.4053 100.331 51.5347 99.1924 52.3C98.0724 53.0653 96.8497 53.448 95.5244 53.448C94.4977 53.448 93.4337 53.224 92.3324 52.776L93.4244 49.332C94.2084 49.5747 94.8617 49.696 95.3844 49.696C95.9444 49.696 96.4484 49.5653 96.8964 49.304C97.3444 49.024 97.7551 48.5947 98.1284 48.016L98.2964 47.792L90.5684 33.4H95.4124L100.62 43.928L105.996 33.4H110.448ZM112.604 33.4H128.424V37.012H117.112V41.044H122.544C124.915 41.044 126.716 41.5387 127.948 42.528C129.199 43.5173 129.824 44.9453 129.824 46.812C129.824 48.772 129.133 50.2933 127.752 51.376C126.371 52.4587 124.42 53 121.9 53H112.604V33.4ZM121.648 49.64C122.805 49.64 123.692 49.416 124.308 48.968C124.924 48.5013 125.232 47.8293 125.232 46.952C125.232 45.2347 124.037 44.376 121.648 44.376H117.112V49.64H121.648Z" fill="#152647"/>
<circle cx="179" cy="8" r="3.65" stroke="#152647" stroke-width="0.7"/>
<path d="M180.552 10L179.592 8.65C179.484 8.662 179.372 8.668 179.256 8.668H178.128V10H177.684V5.8H179.256C179.792 5.8 180.212 5.928 180.516 6.184C180.82 6.44 180.972 6.792 180.972 7.24C180.972 7.568 180.888 7.846 180.72 8.074C180.556 8.298 180.32 8.46 180.012 8.56L181.038 10H180.552ZM179.244 8.29C179.66 8.29 179.978 8.198 180.198 8.014C180.418 7.83 180.528 7.572 180.528 7.24C180.528 6.9 180.418 6.64 180.198 6.46C179.978 6.276 179.66 6.184 179.244 6.184H178.128V8.29H179.244Z" fill="#152647"/>
<path d="M39.2913 2H18.5795C18.0548 2 17.5511 2.2062 17.177 2.57415L2.59752 16.9147C2.21528 17.2906 2 17.8044 2 18.3405V39.4108C2 39.9412 2.21071 40.4499 2.58579 40.825L17.175 55.4142C17.5501 55.7893 18.0588 56 18.5892 56H39.2674C39.8062 56 40.3223 55.7826 40.6986 55.3969L55.3021 40.4344C55.6667 40.0608 55.8708 39.5595 55.8708 39.0374V18.3405C55.8708 17.8044 55.6555 17.2906 55.2733 16.9147L40.6938 2.57415C40.3197 2.2062 39.816 2 39.2913 2Z" stroke="#152647" stroke-width="4"/>
<path d="M2.12915 17.6316H22.3492C23.4538 17.6316 24.3492 18.527 24.3492 19.6316V37.9809C24.3492 39.0854 23.4538 39.9809 22.3492 39.9809H2.12915" stroke="#152647" stroke-width="2"/>
<path d="M56 17.7607L41.6415 31.6485C40.8615 32.403 39.6222 32.3978 38.8485 31.6368L25.9162 18.9165C25.1241 18.1374 25.1188 16.862 25.9045 16.0764L39.8517 2.12915" stroke="#152647"/>
<path d="M17.7607 56V35.2632C17.7607 34.1586 18.6562 33.2632 19.7607 33.2632H37.9808C39.0854 33.2632 39.9808 34.1586 39.9808 35.2632V55.4833" stroke="#152647" stroke-width="2"/>
<path d="M17.5024 2V22.866C17.5024 23.9706 18.3979 24.866 19.5024 24.866H38.1101C39.2147 24.866 40.1101 23.9706 40.1101 22.866V2.51675" stroke="#152647" stroke-width="2"/>
<path d="M55.8707 17.6316H35.6506C34.5461 17.6316 33.6506 18.527 33.6506 19.6316V37.9809C33.6506 39.0854 34.5461 39.9809 35.6506 39.9809H55.8707" stroke="#152647" stroke-width="2"/>
<path d="M17.8899 2L32.2132 16.2058C33.0042 16.9904 33.0017 18.2701 32.2075 19.0515L19.0574 31.9895C18.27 32.7642 17.0035 32.7539 16.2289 31.9663L2.12915 17.6316" stroke="#152647"/>
<path d="M39.5933 2.2583L25.8923 16.0764C25.1123 16.863 25.1203 18.1337 25.91 18.9104L38.8544 31.6426C39.6256 32.4012 40.8603 32.409 41.6412 31.6602L56 17.8899M56 39.7224L41.6412 25.9521C40.8604 25.2033 39.6256 25.2111 38.8544 25.9697L25.904 38.7078C25.1166 39.4822 25.106 40.7483 25.8803 41.5358L39.5933 55.4832M17.8899 55.4832L31.7433 41.1602C32.5113 40.3662 32.4901 39.0999 31.696 38.332L18.9221 25.9804C18.1351 25.2194 16.8826 25.2326 16.1117 26.0099L2.12915 40.11" stroke="#152647"/>
</svg>
