<svg xmlns="http://www.w3.org/2000/svg" xmlns:xlink="http://www.w3.org/1999/xlink"><symbol viewBox="0 0 13 12" id="arrow" xmlns="http://www.w3.org/2000/svg"><g clip-path="url(#aclip0_1456_3477)"><path d="M12.5 10.58h-1.935V3.356L1.918 12 .5 10.58l8.645-8.645H1.92V0H12.5v10.58z"/></g><defs><clipPath id="aclip0_1456_3477"><path transform="rotate(-90 6.25 5.75)" d="M0 0h12v12H0z"/></clipPath></defs></symbol><symbol viewBox="0 0 12 21" id="backButton" xmlns="http://www.w3.org/2000/svg"><path d="M.898 11.076l9.713 9.686a.814.814 0 001.15-1.152L2.624 10.5l9.136-9.11A.814.814 0 1010.61.238L.898 9.924a.813.813 0 000 1.152z"/></symbol><symbol viewBox="0 0 28 21" id="burger" xmlns="http://www.w3.org/2000/svg"><path fill-rule="evenodd" clip-rule="evenodd" d="M28 10.387c0-.748-.607-1.355-1.355-1.355H1.355a1.355 1.355 0 100 2.71h25.29c.748 0 1.355-.607 1.355-1.355zM28 1.355C28 .607 27.393 0 26.645 0H1.355a1.355 1.355 0 100 2.71h25.29c.748 0 1.355-.607 1.355-1.355zM28 19.42c0-.749-.607-1.356-1.355-1.356H1.355a1.355 1.355 0 000 2.71h25.29c.748 0 1.355-.606 1.355-1.355z"/></symbol><symbol viewBox="0 0 21 21" id="closeButton" xmlns="http://www.w3.org/2000/svg"><path d="M11.66 10.5l9.1-9.1A.82.82 0 0019.6.24l-9.1 9.1L1.4.24A.82.82 0 10.24 1.4l9.1 9.1-9.1 9.1a.82.82 0 001.16 1.16l9.1-9.1 9.1 9.1a.818.818 0 001.16 0 .82.82 0 000-1.16l-9.1-9.1z"/></symbol><symbol viewBox="0 0 146 46" id="logo" xmlns="http://www.w3.org/2000/svg"><path d="M68.397 8.8h-7.395l.023 12.614h-3.576V5.869h10.97L68.397 8.8zM70.613 5.869h3.575v10.126L81.605 5.87h3.376v15.545h-3.553V11.31L74.01 21.414h-3.398V5.869zM103.019 5.869v15.545h-3.575V8.8h-7.017v12.614H88.85V5.869h14.168zM118.909 18.527v2.887h-12.036V5.869h11.747v2.887h-8.172v3.375h7.217v2.798h-7.217v3.598h8.461zM128.543 5.869c1.377 0 2.569.23 3.576.688 1.021.46 1.806 1.11 2.353 1.955.548.843.822 1.843.822 2.997 0 1.14-.274 2.14-.822 2.998-.547.844-1.332 1.496-2.353 1.955-1.007.444-2.199.666-3.576.666h-3.131v4.286h-3.597V5.869h6.728zm-.2 8.328c1.081 0 1.903-.23 2.465-.689.563-.474.844-1.14.844-1.999 0-.873-.281-1.54-.844-1.998-.562-.474-1.384-.71-2.465-.71h-2.931v5.396h2.931zM63.467 35.772H60.98v6.263h-3.575V26.49h3.575v6.284h2.576l4.086-6.284h3.798l-5.086 7.506 5.241 8.039H67.51l-4.042-6.263zM87.597 26.49l-6.618 12.302c-.636 1.185-1.406 2.08-2.31 2.687a5.05 5.05 0 01-2.908.91c-.814 0-1.658-.177-2.532-.532l.866-2.731c.622.192 1.14.288 1.555.288.444 0 .844-.104 1.199-.31.355-.223.68-.563.977-1.022l.133-.178L71.83 26.49h3.842l4.13 8.35 4.264-8.35h3.531zM89.307 26.49h12.547v2.864h-8.972v3.198h4.308c1.88 0 3.309.393 4.286 1.177.992.785 1.488 1.917 1.488 3.398 0 1.554-.548 2.76-1.643 3.62-1.096.858-2.643 1.288-4.642 1.288h-7.372V26.49zm7.172 12.88c.918 0 1.621-.178 2.11-.533.489-.37.733-.903.733-1.6 0-1.361-.948-2.042-2.843-2.042h-3.597v4.175h3.597z"/><circle cx="141.965" cy="6.345" r="2.822" stroke="currentColor" stroke-width=".7" fill="none"/><path d="M143.196 7.931l-.761-1.07c-.086.009-.174.014-.266.014h-.895V7.93h-.352v-3.33h1.247c.425 0 .758.1.999.304.241.203.362.482.362.837 0 .26-.067.48-.2.662-.13.177-.318.306-.562.385l.814 1.142h-.386zm-1.037-1.356c.33 0 .582-.073.757-.219.174-.146.261-.35.261-.614 0-.27-.087-.476-.261-.618-.175-.146-.427-.22-.757-.22h-.885v1.67h.885z"/><path fill-rule="evenodd" clip-rule="evenodd" d="M12.51.91A3.172 3.172 0 0114.737 0h16.426c.832 0 1.631.327 2.225.91L44.95 12.285c.606.597.947 1.411.947 2.262V30.96c0 .828-.323 1.623-.902 2.216L33.413 45.043a3.172 3.172 0 01-2.27.957h-16.4a3.172 3.172 0 01-2.243-.93L.93 33.5A3.173 3.173 0 010 31.257V14.546c0-.85.341-1.665.948-2.262L12.51.911zm18.652 2.262H14.735L3.172 14.546v16.71l11.571 11.572h16.4L42.725 30.96V14.546L31.162 3.172z"/><path fill-rule="evenodd" clip-rule="evenodd" d="M17.725 14.777H1.69V13.19h16.036a2.38 2.38 0 012.38 2.379v14.553a2.38 2.38 0 01-2.38 2.38H1.69v-1.587h16.036a.793.793 0 00.793-.793V15.57a.793.793 0 00-.793-.793z"/><path fill-rule="evenodd" clip-rule="evenodd" d="M31.887 1.969L20.825 13.031a1.19 1.19 0 00.007 1.689L31.09 24.808a1.19 1.19 0 001.661.008L44.138 13.8l.552.57-11.388 11.015a1.983 1.983 0 01-2.77-.012L20.277 15.285a1.983 1.983 0 01-.011-2.815L31.326 1.408l.56.561z"/><path fill-rule="evenodd" clip-rule="evenodd" d="M15.672 27.174a.793.793 0 00-.793.793v16.447h-1.586V27.967a2.38 2.38 0 012.38-2.379h14.45a2.38 2.38 0 012.38 2.38v16.036h-1.587V27.967a.793.793 0 00-.793-.793h-14.45zM13.088 18.135V1.586h1.586v16.55c0 .437.355.792.793.792h14.758a.793.793 0 00.793-.793V1.996h1.587v16.14a2.38 2.38 0 01-2.38 2.378H15.467a2.38 2.38 0 01-2.379-2.379z"/><path fill-rule="evenodd" clip-rule="evenodd" d="M25.895 15.57a2.38 2.38 0 012.38-2.38H44.31v1.587H28.275a.793.793 0 00-.793.793v14.553c0 .438.355.793.793.793H44.31v1.586H28.275a2.38 2.38 0 01-2.38-2.38V15.57z"/><path fill-rule="evenodd" clip-rule="evenodd" d="M25.27 13.134L13.91 1.868l.558-.563 11.36 11.266a1.983 1.983 0 01-.006 2.822l-10.43 10.26a1.983 1.983 0 01-2.803-.022L1.405 14.26l.565-.555 11.183 11.369a1.19 1.19 0 001.682.013l10.43-10.26a1.19 1.19 0 00.003-1.694z"/><path fill-rule="evenodd" clip-rule="evenodd" d="M20.254 12.471L31.12 1.512l.563.558-10.866 10.96a1.19 1.19 0 00.01 1.685l7.701 7.575 2.01-1.976a1.983 1.983 0 012.762-.017l2.086 2 8.753-8.395.55.573-8.73 8.371 8.73 8.372-.55.572-8.753-8.394-2.086 2a1.983 1.983 0 01-2.762-.017l-2.01-1.976-4.985 4.904 1.87 1.81c.788.76.81 2.016.048 2.803l-2.183 2.256 8.406 8.55-.565.556-8.392-8.535-8.253 8.533-.57-.552 8.267-8.547-1.928-1.96a1.983 1.983 0 01.024-2.804l2.14-2.105-7.675-7.422a1.19 1.19 0 00-1.672.018L1.97 32.09l-.563-.559 11.09-11.183a1.983 1.983 0 012.786-.029l7.69 7.435 4.99-4.909-7.692-7.565a1.983 1.983 0 01-.017-2.81zm2.723 16.392l-2.154 2.12a1.19 1.19 0 00-.014 1.681l1.913 1.947 2.169-2.242a1.19 1.19 0 00-.028-1.683l-1.886-1.823zm6.117-6.017l2 1.967a1.19 1.19 0 001.657.01l2.062-1.977-2.062-1.977a1.19 1.19 0 00-1.657.01l-2 1.967z"/></symbol><symbol viewBox="0 0 23 23" id="phone" xmlns="http://www.w3.org/2000/svg"><path fill-rule="evenodd" clip-rule="evenodd" d="M2.962 8.937a22.614 22.614 0 0011.716 11.382l.016.007 1.003.447a2.953 2.953 0 003.598-.97l1.673-2.317a.329.329 0 00-.06-.448l-2.921-2.358a.328.328 0 00-.47.06l-1.137 1.535a.985.985 0 01-1.198.311 17.585 17.585 0 01-8.758-8.763.986.986 0 01.31-1.198L8.27 5.487a.329.329 0 00.06-.47L5.972 2.093a.328.328 0 00-.448-.06L3.195 3.715a2.957 2.957 0 00-.96 3.62l.727 1.6v.002zM13.901 22.13A24.584 24.584 0 011.17 9.757v-.003L.44 8.15a4.929 4.929 0 011.601-6.034L4.371.435a2.297 2.297 0 013.134.42L9.862 3.78a2.3 2.3 0 01-.42 3.291l-.88.652a15.62 15.62 0 006.72 6.724l.652-.88a2.297 2.297 0 013.29-.42l2.92 2.358a2.3 2.3 0 01.42 3.137l-1.673 2.317a4.923 4.923 0 01-5.995 1.615l-.995-.444z"/></symbol><symbol viewBox="0 0 50 50" id="telegram" xmlns="http://www.w3.org/2000/svg"><path fill-rule="evenodd" clip-rule="evenodd" d="M32.047 34.345v-.002l.024-.057L36 14.476v-.065c0-.494-.182-.925-.58-1.183-.347-.226-.746-.242-1.026-.221a3.47 3.47 0 00-.769.158 4.305 4.305 0 00-.314.114l-.017.007-21.908 8.594-.006.002a2.682 2.682 0 00-.195.08 2.977 2.977 0 00-.448.25c-.281.193-.817.65-.727 1.373.075.6.488.98.767 1.177a2.712 2.712 0 00.57.307l.014.005.009.003 3.833 1.29c-.013.241.01.486.074.728l1.92 7.283a1.965 1.965 0 003.714.257l2.998-3.205 5.148 3.947.073.032c.468.204.905.269 1.304.214.4-.054.716-.221.954-.412a2.283 2.283 0 00.644-.831l.01-.023.004-.009.001-.003zm-14.87-7.75a.393.393 0 01.17-.433l13-8.256s.765-.464.738 0c0 0 .137.082-.273.464-.389.363-9.266 8.934-10.164 9.801a.364.364 0 00-.101.178l-1.45 5.528-1.92-7.283z"/></symbol><symbol viewBox="0 0 50 50" id="vk" xmlns="http://www.w3.org/2000/svg"><path d="M26.34 35.09C16.09 35.09 10.244 27.926 10 16h5.134c.169 8.752 3.954 12.46 6.952 13.224V16h4.835v7.548c2.96-.324 6.07-3.764 7.12-7.548h4.835c-.806 4.663-4.18 8.103-6.578 9.517 2.399 1.146 6.24 4.147 7.702 9.574h-5.322c-1.143-3.631-3.99-6.44-7.757-6.822v6.822h-.581z"/></symbol><symbol viewBox="0 0 50 50" id="whatsapp" xmlns="http://www.w3.org/2000/svg"><path fill-rule="evenodd" clip-rule="evenodd" d="M13.13 36.237a.522.522 0 00.636.644l6.015-1.571a13.055 13.055 0 006.213 1.575H26c7.162 0 13-5.805 13-12.94 0-3.458-1.35-6.71-3.804-9.153A12.946 12.946 0 0026 11c-7.162 0-13 5.804-13 12.94 0 2.269.598 4.499 1.737 6.465l-1.606 5.832zm8.75-18.488c.239.007.503.02.755.579.167.372.449 1.057.678 1.616.178.434.325.792.362.865.084.167.136.36.026.585l-.037.076c-.088.183-.15.313-.299.483-.06.07-.124.146-.187.223-.112.134-.222.268-.317.362-.168.167-.342.347-.148.681.194.334.872 1.434 1.873 2.32 1.076.959 2.012 1.362 2.485 1.567.091.04.166.071.22.098.336.168.537.142.73-.083.194-.225.84-.977 1.066-1.311.22-.335.445-.283.756-.168.31.116 1.963.926 2.299 1.093l.185.09c.234.113.393.189.46.302.084.142.084.81-.194 1.594-.284.785-1.653 1.537-2.273 1.595a6.913 6.913 0 00-.177.02c-.568.068-1.29.155-3.859-.856-3.166-1.245-5.256-4.335-5.679-4.96a3.559 3.559 0 00-.069-.099l-.007-.01c-.192-.257-1.368-1.83-1.368-3.454 0-1.554.765-2.363 1.114-2.732l.061-.065a1.24 1.24 0 01.898-.417c.226 0 .452 0 .646.006z"/></symbol></svg>